<?xml version="1.0" encoding="UTF-8"?>
<svg version="1.1" xmlns="http://www.w3.org/2000/svg" width="1181" height="1181">
<path d="M0 0 C4.28153931 1.65545638 7.14600873 4.87256266 10.30981445 8.06689453 C10.9331366 8.68831833 11.55645874 9.30974213 12.19866943 9.94999695 C14.25845835 12.00608123 16.31095537 14.06928084 18.36328125 16.1328125 C19.79774588 17.56846994 21.23258114 19.00375713 22.66777039 20.43869019 C25.6776994 23.45018389 28.68423878 26.46500777 31.68823242 29.48242188 C35.52287395 33.33398421 39.36399532 37.17900095 43.20748615 41.02173042 C46.17361851 43.98813603 49.13712687 46.95715149 52.09978294 49.92702866 C53.51405982 51.34447041 54.9289279 52.76132255 56.34441566 54.17755508 C58.3327954 56.16812562 60.31783499 58.16196956 62.30200195 60.15673828 C62.87834885 60.73263199 63.45469574 61.3085257 64.04850769 61.90187073 C66.89552642 64.77093617 69.62771133 67.694818 72.26104355 70.76188469 C75.72982352 74.74058623 79.36571635 78.50349666 83.1058197 82.22607422 C83.78558682 82.90669576 84.46535393 83.5873173 85.16572005 84.28856373 C87.42183746 86.54631541 89.68148649 88.8004975 91.94116211 91.0546875 C93.56800463 92.68124768 95.19462645 94.30802862 96.82104492 95.93501282 C101.22114664 100.33540067 105.62431813 104.73270504 110.02805781 109.12945175 C114.63561669 113.7307466 119.24033158 118.33488577 123.84535217 122.9387207 C131.56985102 130.66046762 139.29609152 138.38046784 147.02368164 146.09912109 C154.97993752 154.04618527 162.93513298 161.99430851 170.88891602 169.94384766 C171.37993122 170.43460014 171.87094643 170.92535262 172.37684088 171.43097639 C174.84033544 173.89316582 177.30380928 176.35537598 179.76727283 178.81759644 C200.17497201 199.21494414 220.58633022 219.60862774 241 240 C242.10494058 238.42852239 243.20891763 236.85636727 244.3125 235.28393555 C244.92738281 234.40851608 245.54226563 233.53309662 246.17578125 232.63114929 C248.86937813 228.74605847 251.43945072 224.78602033 254 220.8125 C255.14042864 219.05065413 256.28106171 217.28894058 257.421875 215.52734375 C258.30262695 214.16585205 258.30262695 214.16585205 259.20117188 212.77685547 C262.20730057 208.1362871 265.22853753 203.50559382 268.25 198.875 C268.86560791 197.93140625 269.48121582 196.9878125 270.11547852 196.015625 C272.07661528 193.01017474 274.03825622 190.00505407 276 187 C276.73095952 185.8800472 277.46191649 184.76009273 278.19287109 183.64013672 C280.07409747 180.75797753 281.95606695 177.87630464 283.83850098 174.99493408 C284.89756278 173.37363904 285.9561156 171.75201155 287.01464844 170.13037109 C291.63593359 163.05942362 296.30303681 156.02081446 301 149 C302.9104459 151.86566885 303.45188191 153.34456541 304.13336182 156.61743164 C304.33462111 157.5679541 304.53588039 158.51847656 304.74323845 159.49780273 C305.06417819 161.06316772 305.06417819 161.06316772 305.39160156 162.66015625 C305.62323061 163.76359375 305.85485966 164.86703125 306.09350777 166.00390625 C306.86540596 169.68883992 307.62795252 173.37564678 308.390625 177.0625 C308.93281131 179.65889802 309.47553591 182.25517791 310.01895142 184.85131836 C311.47176918 191.79890757 312.91551835 198.74836032 314.35732269 205.69824219 C315.24620043 209.98269505 316.13677204 214.26679447 317.02789307 218.55078125 C317.17459769 219.25605233 317.32130231 219.96132341 317.47245252 220.68796635 C318.21213063 224.24361506 318.95196068 227.79923216 319.69182014 231.35484314 C319.83786985 232.05672791 319.98391955 232.75861269 320.134395 233.4817667 C320.4286196 234.89570242 320.72286123 236.30963459 321.01712 237.72356319 C321.75039561 241.24724294 322.4832535 244.77100867 323.21525955 248.29495239 C326.55417845 264.36814052 329.92579321 280.43298198 333.42567444 296.4720459 C333.96309532 298.93820083 334.49753095 301.40497993 335.03063965 303.87207031 C335.1973114 304.64332245 335.36398315 305.41457458 335.53570557 306.209198 C335.85765604 307.69950549 336.17947839 309.18984068 336.50115967 310.6802063 C337.40123485 314.84158899 338.3208232 318.99804231 339.25503731 323.15188599 C339.93505673 326.20161865 340.58639327 329.25748152 341.2421875 332.3125 C341.4865152 333.36373047 341.7308429 334.41496094 341.98257446 335.49804688 C342.51569861 338.04830722 342.98015384 340.39529034 343 343 C341.24780273 345.56933594 341.24780273 345.56933594 339 347 C338.27167969 347.52078125 337.54335937 348.0415625 336.79296875 348.578125 C335.93316406 349.12984375 335.07335938 349.6815625 334.1875 350.25 C328.11373406 354.23038059 322.14354124 358.34566497 316.1875 362.5 C315.1977417 363.1899707 314.2079834 363.87994141 313.18823242 364.59082031 C311.14267989 366.0172573 309.0973535 367.44401864 307.05224609 368.87109375 C302.20479373 372.25213555 297.35226345 375.62586822 292.5 379 C286.66689507 383.05705358 280.83439803 387.1149729 275.00390625 391.17578125 C266.05887531 397.40452007 257.10886962 403.62476638 248.11962891 409.78955078 C239.37924821 415.78984758 230.6874418 421.86032093 221.98779297 427.91943359 C216.20751967 431.94455936 210.42457179 435.96584115 204.64208984 439.98779297 C199.76177486 443.3824692 194.88217975 446.77817184 190.00390625 450.17578125 C180.99463698 456.4491859 171.97982163 462.71304499 162.92407227 468.91918945 C156.72667677 473.17339441 150.57493924 477.49216134 144.42114258 481.80908203 C138.66284095 485.84524896 132.87959295 489.84263654 127.078125 493.81640625 C121.6943565 497.50967144 116.34478913 501.25060234 111 505 C105.08068969 509.1519598 99.15161402 513.28763498 93.1875 517.375 C86.75220441 521.78587425 80.34110387 526.23074599 73.9375 530.6875 C72.97642334 531.35579834 72.01534668 532.02409668 71.02514648 532.71264648 C65.84919986 536.31358429 60.68021463 539.92409231 55.51953125 543.546875 C54.46967041 544.28204346 53.41980957 545.01721191 52.33813477 545.7746582 C50.31436809 547.19204685 48.29264162 548.61235404 46.27319336 550.03588867 C45.3631958 550.67244385 44.45319824 551.30899902 43.515625 551.96484375 C42.71415039 552.5280835 41.91267578 553.09132324 41.08691406 553.67163086 C39 555 39 555 36 556 C37.61372227 551.23260335 40.24625314 547.42969272 43.0625 543.3125 C44.15221671 541.69870949 45.24068406 540.08407489 46.328125 538.46875 C46.91787109 537.59347656 47.50761719 536.71820312 48.11523438 535.81640625 C51.5555683 530.67551348 54.93189041 525.49278141 58.3125 520.3125 C59.04433028 519.19179883 59.77618261 518.07111205 60.50805664 516.95043945 C62.67316703 513.63436261 64.83670091 510.31725878 67 507 C67.96558838 505.51959229 67.96558838 505.51959229 68.95068359 504.00927734 C71.41398416 500.23247327 73.87706457 496.45552591 76.33959961 492.67822266 C84.60171177 480.00624482 92.88538574 467.34835751 101.16601562 454.68847656 C113.29832084 436.13931073 125.42417966 417.58600543 137.5 399 C139.1055072 396.52970432 140.7111386 394.05948948 142.31689453 391.58935547 C143.47695449 389.80467372 144.6367707 388.01983352 145.79638672 386.23486328 C154.77029594 372.42576172 163.84290753 358.6884372 173 345 C163.43 344.67 153.86 344.34 144 344 C142.92105469 341.41800781 141.84210938 338.83601563 140.73046875 336.17578125 C132.68736985 316.93620542 124.62061126 297.70699818 116.5 278.5 C109.9290003 262.95792181 103.39268034 247.40180466 96.88525391 231.83300781 C91.12030072 218.04253337 85.32052861 204.26710436 79.5 190.5 C73.30425137 175.8454001 67.13604942 161.17969674 61 146.5 C52.91582814 127.161757 44.77247838 107.84886581 36.61082458 88.54321289 C33.76155809 81.80327019 30.91519526 75.06210661 28.0703125 68.3203125 C27.46110962 66.87681679 27.46110962 66.87681679 26.83959961 65.40415955 C23.60718159 57.7449985 23.60718159 57.7449985 21.99499512 53.92276001 C17.9126852 44.24433111 13.82204173 34.56974073 9.6953125 24.91015625 C9.0296687 23.34994986 8.36405897 21.78972894 7.69848633 20.22949219 C6.47314318 17.35732136 5.24319649 14.48718448 4.01049805 11.61816406 C3.47166983 10.35619348 2.93300357 9.09415373 2.39453125 7.83203125 C1.92893799 6.74639893 1.46334473 5.6607666 0.98364258 4.54223633 C0 2 0 2 0 0 Z " fill="#FEE500" transform="translate(717,318)"/>
<path d="M0 0 C8.08097476 6.97561545 14.95247203 14.53067066 20 24 C20.45761719 24.84691406 20.91523437 25.69382812 21.38671875 26.56640625 C31.56477974 47.07535198 32.85422223 74.2444509 25.73632812 95.99121094 C17.82160349 117.58350347 3.37937619 134.22297836 -17.109375 144.5703125 C-28.67446774 149.67975823 -40.23094984 151.54728361 -52.8125 151.4375 C-54.64844727 151.42614014 -54.64844727 151.42614014 -56.52148438 151.41455078 C-74.73717605 151.08392681 -88.34672543 145.98995593 -103 135 C-103.33 160.74 -103.66 186.48 -104 213 C-113.9 213 -123.8 213 -134 213 C-134.01030746 210.46140793 -134.02061493 207.92281586 -134.03123474 205.30729675 C-134.12898603 181.34058771 -134.23184233 157.3739044 -134.33933926 133.40723705 C-134.39447806 121.08684881 -134.44792688 108.76645767 -134.49731445 96.44604492 C-134.54039472 85.70016993 -134.58673021 74.95431458 -134.63687855 64.20847017 C-134.66328899 58.52539704 -134.68813464 52.84232732 -134.70907402 47.15923119 C-134.72888879 41.79537847 -134.75310023 36.43156251 -134.78049088 31.0677433 C-134.78973173 29.11324873 -134.79745136 27.15874619 -134.80341911 25.20423889 C-134.84252028 12.76641659 -135.26075616 0.41761552 -136 -12 C-126.1 -12 -116.2 -12 -106 -12 C-105.01 -7.05 -104.02 -2.1 -103 3 C-101.4325 1.96875 -99.865 0.9375 -98.25 -0.125 C-68.54632035 -18.92720131 -29.11391259 -22.40142797 0 0 Z M-97.53125 34.953125 C-102.73836072 42.20984313 -104.1553866 49.59903285 -104.203125 58.3515625 C-104.20882507 59.16563568 -104.21452515 59.97970886 -104.22039795 60.81845093 C-104.22983283 62.5415518 -104.23637592 64.26467059 -104.24023438 65.98779297 C-104.24988912 68.59505742 -104.28090504 71.20151584 -104.3125 73.80859375 C-104.40985884 88.81635469 -102.33470575 99.21779327 -91.671875 110.453125 C-86.28896654 115.5651953 -80.90751946 119.27756188 -74 122 C-73.21753906 122.31839844 -72.43507813 122.63679688 -71.62890625 122.96484375 C-58.34184665 127.46295909 -41.81731145 126.43569795 -29 121 C-14.90213348 113.96018567 -7.14336901 102.53465366 -1.93359375 88.03125 C3.32822585 69.52591344 1.73333428 50.51953523 -7.625 33.7109375 C-14.6282817 22.16739267 -25.35349817 14.39687044 -38.23828125 10.73046875 C-62.52825943 6.01372325 -81.95473262 16.58459035 -97.53125 34.953125 Z " fill="#0F2C52" transform="translate(612,564)"/>
<path d="M0 0 C9.9 0 19.8 0 30 0 C30.0154612 3.76577957 30.0154612 3.76577957 30.03123474 7.6076355 C30.12914551 31.35142102 30.23201168 55.09518147 30.33933926 78.83892632 C30.39439064 91.04365027 30.44782325 103.24837713 30.49731445 115.453125 C30.54050375 126.1027474 30.58686329 136.75235072 30.63687855 147.40194333 C30.66320329 153.0299072 30.68804338 158.65786798 30.70907402 164.28585434 C30.7932115 186.5489265 30.93602138 208.75868182 32 231 C22.43 231 12.86 231 3 231 C2.01 224.07 2.01 224.07 1 217 C-0.69125 218.36125 -2.3825 219.7225 -4.125 221.125 C-22.72924697 235.3796668 -45.91547385 237.18410555 -68.54589844 234.72314453 C-83.07478985 232.47788621 -96.20773733 224.72684734 -107 215 C-107.94939453 214.15501953 -107.94939453 214.15501953 -108.91796875 213.29296875 C-124.08565521 198.99583383 -132.57964858 177.84999806 -133.23828125 157.2265625 C-133.67561374 131.45127886 -128.61294354 110.48720722 -111 91 C-95.58075653 75.5587918 -76.12224156 68.70622081 -54.5625 68.5 C-32.97802632 68.70621082 -17.07289899 74.72107856 0 88 C0 58.96 0 29.92 0 0 Z M-90.25 109.0625 C-101.80699301 123.08751616 -105.28099677 140.13924508 -104 158 C-102.50099384 172.81370789 -97.28104529 187.36510343 -86.1484375 197.72265625 C-70.75550038 209.35212196 -53.75560164 210.63951129 -35.1328125 208.5703125 C-23.51112352 206.26870661 -12.31637806 200.47885433 -5 191 C-1.88358021 185.91531509 0.1089117 181.14844347 0.17700195 175.13647461 C0.18983719 174.14791977 0.20267242 173.15936493 0.21589661 172.14085388 C0.22328354 171.07214554 0.23067047 170.00343719 0.23828125 168.90234375 C0.25038887 167.24628868 0.25038887 167.24628868 0.26274109 165.55677795 C0.27658175 163.21568369 0.28730398 160.87456924 0.29516602 158.53344727 C0.31231597 154.97567672 0.35619626 151.41885068 0.40039062 147.86132812 C0.41052339 145.58334015 0.41903766 143.30534428 0.42578125 141.02734375 C0.45204338 139.44553566 0.45204338 139.44553566 0.47883606 137.83177185 C0.446822 126.7727043 -2.96549439 119.23829119 -10.58984375 111.31640625 C-23.40540049 98.99934766 -37.82958579 93.56082324 -55.41772461 93.63647461 C-68.99645181 93.91725888 -80.76169284 99.24575144 -90.25 109.0625 Z " fill="#0F2C52" transform="translate(259,480)"/>
<path d="M0 0 C16.83105131 12.73573222 24.65366527 31.83570726 28.1875 52.1875 C29.20897248 60.75215384 29.54666155 69.38656946 30 78 C-11.91 78 -53.82 78 -97 78 C-93.14225256 96.33059595 -93.14225256 96.33059595 -83 111 C-83 111.66 -83 112.32 -83 113 C-82.43410156 113.26039063 -81.86820312 113.52078125 -81.28515625 113.7890625 C-78.79268137 115.10986116 -76.6884865 116.67656208 -74.4375 118.375 C-56.5589314 130.96590995 -34.16319501 129.06368624 -13.69580078 125.51806641 C-3.91466484 123.63837337 5.66463523 120.89516732 15.04589844 117.56835938 C17 117 17 117 20 117 C20.5073957 120.20720862 21.004579 123.41592163 21.5 126.625 C21.64308594 127.52863281 21.78617188 128.43226563 21.93359375 129.36328125 C22.63734167 133.95439866 23.18584778 138.33831815 23 143 C2.88429251 152.04701417 -18.43927716 155.23962168 -40.3125 155.375 C-40.9860553 155.38294586 -41.6596106 155.39089172 -42.35357666 155.39907837 C-65.89731977 155.61257743 -87.36593036 148.18981182 -104.31640625 131.671875 C-105.64478516 130.34929687 -105.64478516 130.34929687 -107 129 C-108.00353516 128.04867187 -108.00353516 128.04867187 -109.02734375 127.078125 C-123.79198576 111.94520394 -126.69724107 90.60815114 -126.46875 70.48754883 C-126.07384129 49.86914933 -120.31775565 30.37602455 -106 15 C-105.195625 14.13375 -104.39125 13.2675 -103.5625 12.375 C-102.716875 11.59125 -101.87125 10.8075 -101 10 C-100.42507813 9.40832031 -99.85015625 8.81664062 -99.2578125 8.20703125 C-74.81493911 -15.63629996 -27.95445183 -18.83482374 0 0 Z M-65 17 C-66.20269531 17.47566406 -66.20269531 17.47566406 -67.4296875 17.9609375 C-80.14689074 23.54699874 -88.80701133 33.72103302 -93.875 46.4375 C-95.15056568 49.85413949 -95.15056568 49.85413949 -95 53 C-63.65 53 -32.3 53 0 53 C-1.42662928 41.58696575 -5.76205012 31.86411908 -14.33203125 23.97265625 C-28.50618161 13.49250115 -48.44511778 9.70161106 -65 17 Z " fill="#0F2C52" transform="translate(433,560)"/>
<path d="M0 0 C13.20267507 12.04834282 17.8027501 28.70697924 19 46 C19.11912201 50.54265897 19.13686273 55.08342067 19.13809967 59.62727547 C19.14159358 62.69927393 19.16306725 65.77107514 19.18333054 68.84300137 C19.220834 74.52923119 19.25264684 80.21524278 19.25048828 85.90161133 C19.25138819 104.79662527 19.81770484 122.52431728 24.55291748 140.95066833 C25 143 25 143 25 146 C21.46082426 146.84415762 17.91830859 147.67337694 14.375 148.5 C13.37597656 148.73847656 12.37695312 148.97695313 11.34765625 149.22265625 C10.37441406 149.44824219 9.40117188 149.67382812 8.3984375 149.90625 C7.06304932 150.22045898 7.06304932 150.22045898 5.70068359 150.54101562 C3 151 3 151 -3 151 C-4.65 145.06 -6.3 139.12 -8 133 C-9.505625 134.175625 -11.01125 135.35125 -12.5625 136.5625 C-27.0249572 147.03339327 -41.81078867 151.19907275 -59.5625 151.375 C-60.60325684 151.38909912 -61.64401367 151.40319824 -62.71630859 151.41772461 C-77.95177522 151.32293788 -92.07798041 146.47112822 -103.2890625 135.875 C-112.78092645 125.47295731 -115.45416861 113.71107951 -115.2109375 99.921875 C-114.67610619 89.97797429 -111.76029402 82.07812662 -106 74 C-105.52046875 73.31292969 -105.0409375 72.62585938 -104.546875 71.91796875 C-90.5638873 54.01550723 -64.54535115 48.71186603 -43.3125 45.875 C-32.8980204 44.69321508 -22.44563729 43.85399401 -12 43 C-14.9245599 32.28205981 -18.01850039 22.05699617 -28 16 C-49.21693578 6.1416258 -75.41802753 13.69345423 -96.32421875 20.828125 C-100 22 -100 22 -103 22 C-104.9577539 13.02854522 -105.56408185 4.14280961 -106 -5 C-97.53251121 -7.75890449 -89.0752579 -9.66280142 -80.3125 -11.1875 C-79.36366943 -11.35411133 -78.41483887 -11.52072266 -77.43725586 -11.69238281 C-52.07303301 -15.96397494 -20.7219398 -17.82882429 0 0 Z M-79 87 C-83.20551113 91.31618248 -84.95341816 95.53741677 -85.03515625 101.61328125 C-84.64785853 108.44294589 -83.51005728 114.66033385 -78.390625 119.53125 C-69.62950858 126.19900232 -59.51277481 125.86391235 -49 125 C-36.59111025 123.28572842 -24.21586245 117.95496912 -15.3671875 108.96875 C-11.70370146 103.6933301 -10.62502924 99.12272941 -10.70703125 92.75390625 C-10.71127609 92.09792953 -10.71552094 91.44195282 -10.71989441 90.76609802 C-10.73651221 88.69779089 -10.77412762 86.63050599 -10.8125 84.5625 C-10.82756889 83.14910275 -10.84125341 81.73569002 -10.85351562 80.32226562 C-10.88635896 76.88118565 -10.93801985 73.44069281 -11 70 C-33.09487254 70 -61.71455492 71.34289395 -79 87 Z " fill="#0F2C52" transform="translate(761,564)"/>
<path d="M0 0 C0.96764282 0.00142502 1.93528564 0.00285004 2.93225098 0.00431824 C4.60337448 -0.00023628 4.60337448 -0.00023628 6.30825806 -0.00488281 C7.54349213 0.00226242 8.7787262 0.00940765 10.0513916 0.01676941 C12.0133699 0.01691292 12.0133699 0.01691292 14.01498413 0.01705933 C17.64903188 0.01822972 21.28292071 0.03278416 24.91692352 0.05000305 C27.97543703 0.06300114 31.03394753 0.06856832 34.09248161 0.07444191 C75.29909469 0.15916038 116.50483992 0.71622251 157.7076416 1.24723816 C154.94079106 3.09180519 153.48455276 3.69253413 150.35063171 4.41424561 C149.45903854 4.6227565 148.56744537 4.8312674 147.64883423 5.0460968 C146.67203705 5.26788605 145.69523987 5.48967529 144.68884277 5.71818542 C143.65704391 5.95761368 142.62524506 6.19704193 141.56217957 6.44372559 C138.12630486 7.23951234 134.68848004 8.02652484 131.25061035 8.81364441 C128.83473281 9.37158264 126.41898889 9.93009976 124.00337219 10.48916626 C118.25571759 11.81804906 112.50684365 13.14156122 106.75732452 14.46234697 C99.74165915 16.07421201 92.72751375 17.6926513 85.71350098 19.31169128 C84.47535519 19.59748204 83.2372094 19.8832728 81.96154404 20.17772388 C79.4787467 20.75083135 76.99595729 21.3239732 74.51317596 21.89715004 C70.81925652 22.74972584 67.12518014 23.60161919 63.43109131 24.45346069 C49.35717731 27.70042634 35.28932206 30.97118225 21.23498535 34.30192566 C20.50388235 34.47502825 19.77277935 34.64813084 19.01952171 34.82647896 C4.18597391 38.34180557 -10.61647091 41.98395308 -25.4119873 45.65568542 C-28.2923584 46.24723816 -28.2923584 46.24723816 -32.2923584 46.24723816 C-30.65520335 41.3738464 -27.91344954 37.45730937 -25.0423584 33.24723816 C-23.96654414 31.65368621 -22.89103679 30.05992704 -21.8157959 28.46598816 C-21.24699707 27.62551941 -20.67819824 26.78505066 -20.09216309 25.91911316 C-18.20005213 23.11020618 -16.32610757 20.28986626 -14.4564209 17.46598816 C-13.82510254 16.51337097 -13.19378418 15.56075378 -12.54333496 14.57926941 C-11.30704041 12.71292157 -10.07198397 10.84575291 -8.83825684 8.97770691 C-8.27396973 8.12821472 -7.70968262 7.27872253 -7.1282959 6.40348816 C-6.62862305 5.64874207 -6.1289502 4.89399597 -5.61413574 4.11637878 C-2.92640074 0.31562165 -2.92640074 0.31562165 0 0 Z " fill="#E9D500" transform="translate(894.2923583984375,660.7527618408203)"/>
</svg>
