<?xml version="1.0" encoding="UTF-8"?><svg id="b" xmlns="http://www.w3.org/2000/svg" width="240" height="156.3" viewBox="0 0 240 156.3"><defs><style>.d{fill:#01a7df;}.e{fill:#ec1c24;}.f{fill:#38b14a;}.g{fill:#1c4ca0;}</style></defs><g id="c"><path class="g" d="m10.7,146.82c-13.72-12.96-14.33-34.59-1.37-48.31.25-.27.51-.53.77-.78,6.21-5.69,14.41-9.15,27.27-9.15,4.19-.02,8.38.27,12.53.86,3.28.43,6.04,1.21,8.63,1.47.95.09,1.29.52,1.29,1.04,0,.69-.26,1.73-.43,4.75-.17,2.85-.08,7.59-.26,9.32-.09,1.29-.26,1.99-1.04,1.99-.69,0-.86-.69-.86-1.9-.13-2.96-1.32-5.78-3.36-7.94-4.99-3.87-11.22-5.77-17.52-5.35-5.9-.42-11.72,1.5-16.21,5.35-6.3,5.78-7.94,13.98-7.94,22.35,0,20.54,15.62,30.72,27.18,30.72,7.68,0,12.34-.86,15.79-4.83,1.4-1.65,2.4-3.6,2.95-5.69.26-1.38.43-1.72,1.11-1.72.6,0,.77.6.77,1.29-.36,3.86-.99,7.7-1.9,11.47-.18,1.21-1.06,2.19-2.24,2.5-5.04,1.47-10.28,2.14-15.53,1.99-11.84-.01-21.77-2.6-29.62-9.42Z"/><path class="g" d="m72.42,114.65c0-13.58,0-16.08-.18-18.93-.18-3.04-.89-4.47-3.84-5.09-1.15-.2-2.32-.29-3.49-.27-.98,0-1.52-.18-1.52-.8s.63-.8,1.96-.8c4.73,0,10.36.27,12.86.27,3.66,0,8.84-.27,12.95-.27,11.16,0,15.18,3.75,16.61,5.09,2.8,2.84,4.4,6.65,4.47,10.63.35,11.59-8.77,21.28-20.36,21.62-.54.02-1.07.01-1.61-.01-.63.01-1.25-.01-1.88-.09-.45-.09-1.07-.18-1.07-.8,0-.71.63-.98,2.5-.98,5,0,11.97-5.63,11.97-14.74.29-5.02-1.64-9.92-5.27-13.39-2.44-2.23-5.62-3.48-8.93-3.49-1.17-.04-2.34.08-3.48.37-.45.18-.71.71-.71,1.69v35.72c0,8.22,0,15.27.45,19.11.27,2.5.8,4.47,3.48,4.83,1.51.21,3.03.34,4.55.37.98,0,1.43.27,1.43.72,0,.62-.71.89-1.7.89-5.9,0-11.52-.27-13.84-.27-2.05,0-7.68.27-11.25.27-1.16,0-1.79-.27-1.79-.89,0-.45.37-.72,1.43-.72,1.08,0,2.16-.13,3.22-.37,1.79-.37,2.23-2.32,2.58-4.91.45-3.75.45-10.81.45-19.02l.02-15.73Z"/><path class="g" d="m130.42,138.68c-.34,0-.47.13-.61.54l-3.64,9.63c-.56,1.31-.9,2.69-1.01,4.11,0,1.21.61,2.09,2.69,2.09h1.01c.81,0,1.01.13,1.01.54,0,.54-.41.67-1.15.67-2.16,0-5.05-.2-7.14-.2-.74,0-4.44.2-7.95.2-.87,0-1.28-.13-1.28-.67,0-.41.27-.54.81-.54.7,0,1.4-.06,2.09-.14,3.1-.4,4.38-2.69,5.73-6.06l16.91-42.29c.81-1.95,1.21-2.69,1.88-2.69.61,0,1.01.6,1.68,2.16,1.62,3.7,12.39,31.18,16.71,41.42,2.56,6.06,4.51,7,5.93,7.34.93.18,1.88.27,2.83.27.54,0,.87.07.87.54,0,.54-.61.67-3.1.67s-7.34,0-12.73-.13c-1.22-.07-2.02-.07-2.02-.54,0-.41.27-.54.94-.61.57-.21.87-.84.67-1.41-.02-.05-.04-.09-.06-.13l-5.39-14.28c-.08-.3-.37-.5-.67-.47h-15.02Zm13.74-3.37c.34,0,.4-.2.34-.4l-6.06-16.64c-.07-.27-.14-.61-.34-.61s-.34.34-.41.61l-6.2,16.58c-.07.27,0,.47.27.47h12.4Z"/><path class="g" d="m183.46,135.94c0,8.84,0,13.61,1.45,14.85,1.17,1.04,2.97,1.52,8.36,1.52,3.66,0,6.35-.07,8.08-1.93.95-1.2,1.57-2.63,1.79-4.15.07-.62.21-1.04.76-1.04.48,0,.55.34.55,1.18-.15,2.67-.5,5.33-1.04,7.94-.41,1.52-.76,1.86-4.35,1.86-4.97,0-8.57-.14-11.67-.21-3.11-.14-5.6-.21-8.43-.21-.76,0-2.28,0-3.94.07-1.59,0-3.39.14-4.76.14-.9,0-1.39-.21-1.39-.69,0-.35.28-.55,1.11-.55.84,0,1.67-.09,2.48-.28,1.39-.28,1.73-1.79,2.01-3.8.35-2.9.35-8.36.35-14.71v-12.16c0-10.5,0-12.44-.14-14.65-.14-2.35-.69-3.45-2.97-3.94-.75-.15-1.52-.22-2.28-.21-.76,0-1.18-.14-1.18-.62s.48-.62,1.52-.62c3.25,0,7.6.21,9.47.21,1.66,0,6.7-.21,9.4-.21.97,0,1.45.14,1.45.62s-.41.62-1.24.62c-.9,0-1.8.07-2.69.21-1.86.34-2.42,1.52-2.56,3.94-.14,2.21-.14,4.15-.14,14.65v12.16Z"/><path class="g" d="m219,135.94c0,8.84,0,13.61,1.45,14.85,1.18,1.04,2.97,1.52,8.36,1.52,3.66,0,6.36-.07,8.08-1.93.95-1.2,1.57-2.63,1.79-4.15.07-.62.21-1.04.76-1.04.48,0,.56.34.56,1.18-.15,2.67-.5,5.33-1.04,7.94-.42,1.52-.76,1.86-4.35,1.86-4.97,0-8.57-.14-11.68-.21-3.11-.14-5.6-.21-8.43-.21-.74,0-2.28,0-3.94.07-1.59,0-3.38.14-4.76.14-.9,0-1.38-.21-1.38-.69,0-.35.28-.55,1.11-.55.84,0,1.67-.09,2.49-.28,1.39-.28,1.73-1.79,2-3.8.34-2.9.34-8.36.34-14.71v-12.16c0-10.5,0-12.44-.14-14.65-.14-2.35-.69-3.45-2.97-3.94-.75-.15-1.52-.22-2.28-.21-.76,0-1.18-.14-1.18-.62s.48-.62,1.52-.62c3.25,0,7.6.21,9.47.21,1.66,0,6.7-.21,9.4-.21.97,0,1.45.14,1.45.62s-.41.62-1.25.62c-.9,0-1.8.07-2.69.21-1.86.34-2.42,1.52-2.56,3.94-.14,2.21-.14,4.15-.14,14.65v12.16Z"/><path class="d" d="m126.16,76.22l3.58-20.81s1.95-24.93,24.97-21.55c19.01,2.79,26.16,2.84,32.82-5.16,0,0,4.66,34.33-26.16,34.14h-10.81c-5.56-.52-11.15.58-16.11,3.16-3.66,2.57-6.53,6.11-8.28,10.23Z"/><path class="e" d="m119.78,88.33l3.38-21.48c.74-3.66.65-7.44-.27-11.05-2.61-9.3-11.44-11.93-19.98-12.86-7.92-.45-15.76-1.86-23.34-4.21-2-.72-3.94-1.58-5.81-2.58-4.51-2.08-8.08-5.78-9.99-10.37-.37-1.14-1.43-4.66-.78-5.78,0,0-16.88,29.08-.58,46.21,16.8,17.66,52.64-3.41,57.37,22.13Z"/><path class="f" d="m125.87,51.83s1.24-6.87,2.51-14.42c1.24-4.55.91-9.38-.93-13.71-3.64-6.78-14.65-11.59-18.28-16.13-1.65-2.15-2.15-4.97-1.35-7.56,0,0-10.06,10.69-8.61,23.58,1.45,12.9,14.23,13.39,20.47,18.53,3.16,2.39,5.36,5.84,6.19,9.72Z"/></g></svg>