<?xml version="1.0" encoding="UTF-8"?><svg id="b" xmlns="http://www.w3.org/2000/svg" width="240" height="277.34" viewBox="0 0 240 277.34"><defs><style>.z{fill:#00a551;}</style></defs><g id="c"><g id="d"><path id="e" class="z" d="m226.58,62.48c-9.39-48.74-55.76-56.95-55.76-56.95-48.15-11.74-99.51-1.16-99.51-1.16C17.28,15.23,11.42,64.24,11.42,64.24c-5.81,31.71-5.99,64.19-.59,95.98,9.69,58.11,65.75,63.69,65.75,63.69,28.21,5.29,57.17,5.38,85.42.3,57.83-8.8,64.88-61.35,64.88-61.35,11.74-56.35-.3-100.38-.3-100.38h0Zm-8.54,96.14s-6.43,48-59.26,56.04c-25.81,4.64-52.25,4.57-78.02-.28,0,0-51.21-5.08-60.05-58.17-4.94-29.03-4.75-58.7.54-87.67,0,0,5.36-44.78,54.69-54.69,0,0,46.92-9.65,90.89,1.07,0,0,42.36,7.51,50.96,52.01,0,0,10.98,40.21.26,91.69h0Z"/><path id="f" class="z" d="m199.27,109.04c0-33.58-28.62-69.85-28.62-69.85l-24.74,44.5-25.46-46.11-.07,1.29-.04-.68-26.11,46.11-23.55-44.5s-29.86,36.26-29.86,69.85c0,0-3.27,49.33,70.78,50.81v33.78h16.53l.13-34.02c74.86-1.48,71.02-51.18,71.02-51.18h0Zm-142.36,5.57s-4.16-11.74,11.8-43.1l39.88,72.92s-46.24-.07-51.68-29.82h0Zm62.99,16.47l-16.75-30.1,16.75-29.49,16.42,29.49-16.42,30.1Zm62.27-16.47c-5.44,29.77-51.68,29.84-51.68,29.84l39.88-72.92c15.96,31.36,11.8,43.1,11.8,43.1h0v-.02Z"/></g><g id="g"><path id="h" class="z" d="m6.61,225.24l3.36-.98.96.52-5.69,10.67c.5.83.52,1.87.04,2.7-.7,1.35-2.37,1.89-3.72,1.18-.02,0-.04-.02-.07-.04-1.35-.7-1.89-2.37-1.18-3.72,0-.02.02-.04.04-.07.33-.59.85-1.07,1.48-1.33l4.79-8.97h0v.04Zm-5.07,10.87c-.37.72-.11,1.61.61,2s1.61.11,2-.61.11-1.61-.61-2c-.72-.39-1.61-.11-2,.61Z"/><path id="i" class="z" d="m19.78,237.02c-.63,1.42-2.31,2.07-3.73,1.44h0c-.28-.13-.52-.3-.76-.48l-2.9,6.53-3.27-1.46,3.2-7.17c-.54-1.16-.57-2.51-.11-3.72,1.42-3.2,5.66-3.96,8.99-2.48,3.51,1.57,5.84,4.77,4.44,7.91l-4.77,10.71-3.29-1.46,4.7-10.54c.81-2.05-.2-4.38-2.27-5.2-.04,0-.09-.04-.13-.06-3.01-1.35-6.38-.02-6.6,2.66,1.13-1.22,2.88-1.61,4.42-1,1.72.5,2.7,2.27,2.22,3.99-.04.11-.07.22-.11.33h0v-.02Zm-3.16.26c.78.35,1.66,0,2.02-.78s0-1.66-.78-2.02c-.76-.35-1.66,0-2.02.76-.35.76,0,1.66.76,2.02h0l.02.02Z"/><path id="j" class="z" d="m39.04,244.47l-2.31,6.27c-.81,1.87-2.96,2.77-4.86,2.03-1.76-.39-2.85-2.13-2.46-3.88.02-.09.06-.18.07-.3.54-1.46,2.18-2.22,3.64-1.68.28.11.55.26.8.43l1.79-4.84-6.62-4.03c1.33-2.61,4.46-3.75,7.14-2.59,2.14.89,2.72,1.9,3.75,2.29.63.18,1.29.15,1.89-.11l.39.55c-.98,1.24-2.59,1.77-4.1,1.37-1.7-.63-2.35-2.05-3.79-2.57-.81-.31-1.72-.15-2.37.43l5.36,3.2c1.41.83,2.29,1.89,1.7,3.44h-.02Zm-6.4,3.59c-.78-.3-1.66.11-1.96.89h0c-.28.8.15,1.66.94,1.94.78.28,1.63-.13,1.92-.89.3-.78-.11-1.66-.89-1.96h0l-.02.02Z"/><path id="k" class="z" d="m42.94,232.47c.22,1.53-.04,3.11-.76,4.47-3.35-3.83-8.04-6.19-13.11-6.62,1.39-3.16,4.84-4.88,8.21-4.05l.85-2.51,2.88.98-.96,2.85c.39.26.72.57,1.04.92l1.15-3.36,2.88.98-2.16,6.38h0l-.02-.04Zm-1.48,1.85c-.18-2.64-1.98-4.9-4.51-5.68-1.83-.68-3.86-.43-5.45.7,3.79.46,7.32,2.22,9.97,4.97h0Z"/><path id="l" class="z" d="m45.2,253.47c-.33,1.24.41,2.53,1.65,2.87.09.02.17.04.26.06,1.26.52,2.7-.07,3.22-1.31v-.04l2.31-7.65c.39-2.29-1.09-4.47-3.35-4.99-1.77-.48-3.68-.17-5.21.85l-.63-.85c2.07-1.59,4.77-2.14,7.3-1.5,3.85,1.16,6.27,4.42,5.29,7.65l-1.9,6.32c-.98,3.24-4.2,3.9-7.47,2.9-3.4-1.04-5.55-3.31-4.57-6.55l1.52-4.97c.63-1.83,2.63-2.79,4.46-2.18,1.72.35,2.83,2.03,2.48,3.75-.02.09-.04.18-.07.28-.44,1.46-1.96,2.27-3.42,1.85h0c-.24-.07-.48-.18-.7-.3l-1.16,3.85h0l.02-.04Zm2.26-4.71c.8.24,1.65-.2,1.89-1.02h0c.2-.81-.28-1.65-1.09-1.85-.78-.2-1.55.22-1.81.98-.24.8.2,1.65,1,1.89h.02,0Z"/><path id="m" class="z" d="m61.64,246.63l3.01-1.77,1.07.26-2.92,11.74c.68.68.96,1.68.7,2.61-.41,1.5-1.94,2.37-3.42,1.96-1.44-.39-2.33-1.85-2-3.31.17-.67.55-1.24,1.11-1.65l2.44-9.85h0v.02Zm-2.26,11.76c-.2.8.3,1.59,1.07,1.79.8.2,1.59-.3,1.79-1.07.2-.8-.28-1.59-1.07-1.79-.8-.18-1.59.3-1.79,1.07h0Z"/><path id="n" class="z" d="m76.65,262.59l1.68-8.63c.37-2.35-1.24-4.53-3.57-4.9-.11,0-.22-.04-.33-.04-1.39-.3-2.83-.11-4.1.5l-.52-.87c1.98-1.28,4.4-1.72,6.69-1.2,3.4.43,5.82,3.53,5.4,6.93,0,.11-.04.24-.06.35l-1.48,7.6c-.44,2.27-3.27,2.88-5.57,2.46s-4.64-2.02-4.2-4.34l.78-3.94c-.33.04-.67.04-.98,0-1.46-.3-2.4-1.72-2.14-3.18.35-1.77,2.07-2.92,3.85-2.57h.06c2.03.28,3.46,2.14,3.2,4.18,0,.09-.04.18-.06.28l-1.33,6.9c-.13.68.31,1.35,1,1.48h.09c.68.2,1.39-.2,1.59-.87,0-.04.02-.07.02-.11h.02l-.04-.02Zm-7.27-9.08c-.15.85.44,1.66,1.29,1.79.81.13,1.61-.39,1.77-1.2.15-.85-.44-1.66-1.29-1.79-.81-.13-1.61.39-1.77,1.2Z"/><path id="o" class="z" d="m96.62,257.75l-.85,6.62c-.37,2.02-2.26,3.37-4.27,3.07-1.79,0-3.25-1.44-3.27-3.24v-.3c.2-1.55,1.61-2.64,3.16-2.46.3.04.59.13.87.24l.67-5.12-7.38-2.44c.7-2.85,3.49-4.66,6.38-4.12,1.42.39,2.81.85,4.18,1.39.65.06,1.29-.15,1.83-.54l.5.44c-.67,1.42-2.13,2.31-3.7,2.26-1.81-.22-2.75-1.46-4.27-1.66-.85-.11-1.7.24-2.2.96l5.93,1.92c1.55.5,2.64,1.33,2.44,2.96h0l-.02.02Zm-5.42,4.94c-.83-.11-1.59.48-1.7,1.29h0c-.09.83.52,1.59,1.35,1.66.81.07,1.53-.48,1.66-1.28.11-.83-.48-1.59-1.31-1.7h0v.02Z"/><path id="p" class="z" d="m83.55,245.38c.68-3.7,4.14-6.23,7.88-5.79,4.1.46,7.06,4.16,6.58,8.26-.04.33-.09.65-.18.98-4.12-2.96-9.24-4.22-14.27-3.46h0Zm12.98,1.07c-.8-2.53-3.05-4.31-5.68-4.49-1.94-.26-3.86.46-5.16,1.92,3.81-.43,7.64.5,10.83,2.59v-.02Z"/><path id="q" class="z" d="m106.16,262.92c1.57.07,2.77,1.39,2.7,2.96-.17,1.79-1.76,3.12-3.55,2.96-.09,0-.18-.02-.26-.04-1.94-.02-3.49-1.61-3.48-3.55l.35-7.82-1.39-.06c.41-3.53,3.57-6.1,7.12-5.73,3.55.17,6.79,2.59,6.64,6.1l-.37,8.12c.09.89.91,1.52,1.77,1.41.68-.07,1.24-.59,1.39-1.28l.5-11.37,2.61-2.35,1.09.06-.59,13.09c-.11,2.5-2.75,3.94-5.34,3.83-2.63-.11-5.12-1.79-5.01-4.29l.33-7.4c.02-2.22-1.76-4.05-3.98-4.09h-.11c-1.83-.17-3.57.87-4.31,2.57l5.08.22-.06,1.39-1.77-.07-.24,5.42c.3-.07.59-.09.89-.09v-.04l-.02.06Zm-1.61,2.68c-.02.83.65,1.53,1.48,1.55.81.02,1.5-.61,1.55-1.42.04-.83-.61-1.55-1.44-1.59-.83-.04-1.55.61-1.59,1.44h0v.02Zm7.1,7.77c-.26.15-.41.41-.41.7-.04.67,1.07,1.35,2.64,1.42,1.09.06,2.72-.39,2.77-1.65l.11-2.7,3.59.17c-.04.96-.11,2.46-.11,2.46-.13,2.83-3.33,3.66-5.71,3.55-2.83-.13-5.08-1.76-4.99-4.03.04-1.44,1.24-2.59,2.68-2.55h.13c1.44.07,2.07.98,2.03,1.87-.04.83-.72,1.48-1.55,1.44h-.02c-.5,0-.94-.26-1.2-.68h.04Z"/><path id="r" class="z" d="m132.25,248.65l.57,15.38c.85.46,1.39,1.35,1.41,2.31.06,1.53-1.13,2.85-2.68,2.9-1.53.06-2.85-1.13-2.9-2.68v-.02c-.02-.68.18-1.35.61-1.89l-.59-16.1-5.92-4.14c.91-1.72,2.74-3.73,4.34-3.81,1.87-.07,3.25,1.02,4.99.96.68.02,1.31-.31,1.66-.91l1.22-.06c-.28,1.53-1.81,3.55-3.25,3.59-1.94.07-3.05-1.2-5.12-1.13-.72-.04-1.41.24-1.92.76l6.03,2.74c.92.26,1.57,1.09,1.55,2.05h0v.04Zm-2.29,17.82c.04.81.72,1.46,1.53,1.42.81-.04,1.46-.72,1.42-1.53-.04-.81-.72-1.46-1.53-1.42-.81.04-1.44.72-1.42,1.53h0Z"/><path id="s" class="z" d="m154.27,264.73l-2.2,2.72-1.09.13-1.28-11.39c-.28-2.16-2.26-3.7-4.42-3.44-.09,0-.18.02-.26.04-1.9.04-3.55,1.37-3.98,3.22l5.34-.59.17,1.39-2.05.24.87,7.77c.13,1.92-1.31,3.61-3.24,3.77-1.74.44-3.51-.63-3.94-2.37-.02-.09-.04-.18-.06-.3-.18-1.55.94-2.96,2.5-3.14.3-.04.59-.02.89.02l-.61-5.36-1.39.17c-.41-3.62,2.48-6.36,6.25-6.79,3.86-.44,7.1,1.42,7.51,4.97l1.02,8.95h-.04Zm-13.57-.72c-.83.09-1.42.83-1.35,1.66h0c.11.83.89,1.42,1.72,1.31.81-.11,1.39-.83,1.31-1.65-.09-.83-.83-1.42-1.66-1.35h-.04l.02.02Z"/><path id="t" class="z" d="m166.12,254.92c.31,1.53-.67,3.01-2.18,3.35h0c-.3.06-.59.07-.89.06l1.44,6.99-3.53.74-1.61-7.71c-1.13-.63-1.92-1.7-2.26-2.94-.72-3.44,2.27-6.51,5.84-7.25,3.77-.78,7.53.48,8.23,3.83l2.39,11.46-3.53.74-2.35-11.32c-.55-2.14-2.74-3.44-4.88-2.88-.04,0-.07.02-.11.04-3.24.67-5.2,3.72-3.81,6.03.2-1.65,1.41-3,3.01-3.38,1.68-.61,3.53.26,4.14,1.94.04.11.07.22.09.33h0v-.02Zm-2.4,2.05c.83-.17,1.35-.98,1.18-1.79-.17-.83-.98-1.35-1.79-1.18-.83.17-1.35.98-1.18,1.79h0c.17.81.96,1.35,1.77,1.18h.02Z"/><path id="u" class="z" d="m193.19,255.4l-1.66,3.07-1.05.31-3.36-10.96c-.67-2.07-2.88-3.22-4.97-2.55-.09.04-.17.06-.26.09-1.87.39-3.24,2-3.31,3.9l5.14-1.57.41,1.33-1.98.61,2.29,7.47c.5,1.87-.61,3.79-2.5,4.31-1.65.74-3.57.04-4.33-1.61-.04-.09-.07-.17-.11-.26-.46-1.5.37-3.07,1.87-3.53h0c.3-.09.59-.13.89-.15l-1.59-5.18-1.33.41c-1.07-3.48,1.26-6.71,4.9-7.82,3.72-1.15,7.25.07,8.3,3.51l2.64,8.62h.02Zm-13.48,1.79c-.8.24-1.26,1.09-1.02,1.9h0c.26.8,1.13,1.22,1.92.96.78-.26,1.2-1.07.98-1.85-.24-.81-1.09-1.26-1.9-1.02h.02Z"/><path id="v" class="z" d="m183.46,237.26c2.42-.92,3.64-3.62,2.74-6.05-.04-.11-.09-.22-.15-.33l2.75-1c1.13,3.94-1.09,8.06-5.01,9.28-2.42.87-5.1.55-5.93-1.72-.54-1.53.28-3.2,1.81-3.73,1.5-.52,3.14.26,3.7,1.74.2.59.22,1.22.07,1.81h.02Zm-4.27-.17c.31.83,1.26,1.24,2.09.92.8-.31,1.22-1.18.94-2-.3-.83-1.22-1.26-2.05-.96s-1.26,1.22-.96,2.05h0l-.02-.02Z"/><path id="w" class="z" d="m212.23,245.75c-1.02,1.41-1.26,3.22-.67,4.84l-3.29,1.42-4.49-10.41c-.94-2.02-3.35-2.88-5.36-1.92-.04,0-.06.04-.09.04-1.72.65-2.85,2.35-2.75,4.2l4.66-2.02.55,1.28-1.63.7,2.14,4.97c.24-.18.5-.35.76-.48,1.44-.61,3.11.04,3.72,1.48.65,1.68-.2,3.55-1.87,4.2-.09.04-.18.07-.28.09-1.76.83-3.85.07-4.68-1.66l-3.11-7.17-1.28.55c-1.18-3.37.55-7.04,3.9-8.26,3.25-1.41,7.23-.65,8.62,2.59l2.74,6.32c.68-1.09,1.59-2.02,2.64-2.75l-3.44-7.95,1.31-3.25,1.02-.44,4.16,9.63-.06,1.59c.98.13,1.81.76,2.2,1.68.59,1.46-.11,3.11-1.57,3.68-1.41.55-3-.07-3.62-1.44-.2-.48-.28-1.02-.18-1.53h-.06v.04Zm-10.46,5.77c.35.76,1.24,1.11,2.02.76.76-.33,1.09-1.2.78-1.98-.33-.78-1.22-1.15-2-.81s-1.15,1.22-.81,2v.04h.02Zm11.89-4.68c.35.76,1.24,1.11,2.02.76.76-.33,1.09-1.2.78-1.98-.33-.78-1.24-1.13-2.02-.8-.78.33-1.13,1.24-.8,2.02h.02Z"/><path id="x" class="z" d="m232.31,240.09l-3.12,1.79-6.49-11.3c-.26-.57-.89-.89-1.5-.74l-.09,2.88-2.61-1.33c-.46,1.04-.39,2.24.18,3.22.65,1.13,1.72,2.13,2.77,1.53.81-.46.28-1.39-.59-1.52l1.05-1.48c1.31.57,1.89,2.11,1.31,3.42-.2.44-.54.83-.94,1.11-1.96.81-4.23-.11-5.05-2.07-1.22-2.02-1.13-4.55.22-6.47l2.26,1.2.11-2.7c1.81-1.37,4.38-1.02,5.75.8.15.18.28.39.39.61l2.22,3.85-1.85-5.53c-.67-1.7.07-3.64,1.72-4.46,1.85-1.11,4.25-.52,5.36,1.33.06.07.09.17.13.24l6.45,11.22-3.12,1.79-6.75-11.74c-.37-.67-1-1.33-1.89-.81-.96.55-.55,1.65-.28,2.59l4.1,12.15.26.44h0l-.02-.04Z"/><path id="y" class="z" d="m228.98,218.59c-.43-.02-.8-.24-1.04-.59-.39-.63-.2-1.46.41-1.87.63-.43,1.48-.26,1.9.37,0,0,0,.02.02.04.72,1.37.24,3.05-1.09,3.83-1.53,1.04-3.61.65-4.64-.87,0-.02-.04-.04-.04-.07-1.04-1.61-.55-3.73,1.05-4.77.46-.3.98-.48,1.52-.52l-2.4-4.88,2.57-1.11,1.44,6.67c-1.68-.02-3.24,1.39-2.14,3.16.78,1.26,2.31,1.33,2.48.61h-.04Z"/></g></g></svg>