<?xml version="1.0" encoding="UTF-8"?>
<svg version="1.1" xmlns="http://www.w3.org/2000/svg" width="765" height="494">
<path d="M0 0 C7.08786806 5.62508103 9.99713773 13.11690845 12.70703125 21.52734375 C13.42246094 20.75390625 14.13789063 19.98046875 14.875 19.18359375 C30.25878434 2.9371673 48.28020236 -4.840662 70.625 -5.69140625 C93.40962397 -6.2427482 116.09796852 -1.72216626 133.17602539 14.45751953 C139.3663965 20.56836926 144.64182045 26.78043261 148.70703125 34.52734375 C149.23683594 35.53152344 149.76664063 36.53570312 150.3125 37.5703125 C155.94796085 48.99429611 159.80099062 61.76426759 159.85420227 74.57244873 C159.86493523 76.35535812 159.86493523 76.35535812 159.87588501 78.17428589 C159.87857391 79.46480865 159.88126282 80.75533142 159.8840332 82.08496094 C159.89030516 83.46861946 159.8969526 84.85227633 159.90394592 86.2359314 C159.92489903 90.76534878 159.93533905 95.29476617 159.9453125 99.82421875 C159.94936312 101.38850166 159.95348013 102.95278439 159.95766258 104.51706696 C159.97669383 111.86722638 159.99093003 119.21737589 159.99927455 126.56755519 C160.00904409 135.03126886 160.03536478 143.49472082 160.07577544 151.95834231 C160.10599852 158.51483078 160.12074921 165.07124445 160.12405556 171.62780118 C160.12639864 175.5371905 160.13526201 179.44629957 160.16051674 183.35561371 C160.183912 187.03621899 160.18798529 190.71636169 160.17775536 194.39702225 C160.17702932 196.37748446 160.1960386 198.3579238 160.21582031 200.33828735 C160.15546169 210.76820401 158.02864116 219.02855802 150.7734375 226.76953125 C142.77988639 233.56933843 133.89465618 235.27480536 123.70703125 234.52734375 C116.08664461 233.0863091 109.68197234 229.40598091 104.9453125 223.23046875 C99.03377155 214.01247269 98.41135873 205.14373524 98.45166016 194.38916016 C98.44622948 192.61415886 98.44622948 192.61415886 98.44068909 190.80329895 C98.43203773 187.58208449 98.43177099 184.36098775 98.43404055 181.13976717 C98.43328758 177.75096888 98.41818511 174.36224284 98.40365601 170.97348022 C98.35684357 159.4537002 98.33269891 147.93393356 98.32617188 136.4140625 C98.32240725 130.03839435 98.30427006 123.66292193 98.27107751 117.28733766 C98.25427088 113.92282685 98.24734738 110.55897925 98.25401688 107.19438553 C98.26111597 103.43739787 98.24374572 99.68122698 98.22119141 95.92431641 C98.22936386 94.82786301 98.23753632 93.73140961 98.24595642 92.60173035 C98.11933693 80.68868173 94.06705518 70.32599002 85.89453125 61.58984375 C76.39728465 52.70532274 65.27677621 48.9768343 52.3984375 49.22265625 C40.33692453 50.2182097 30.53427501 55.14092003 22.38671875 64.0703125 C14.54012777 74.10294636 12.09753295 84.55165647 12.20874023 97.11376953 C12.20322144 98.30890167 12.19770264 99.50403381 12.1920166 100.73538208 C12.1803499 103.97510893 12.18582679 107.21425813 12.1983211 110.4539628 C12.20644056 113.86591987 12.18947023 117.27774603 12.17457581 120.68966675 C12.14392351 128.6098444 12.14224848 136.52989299 12.14422607 144.45011902 C12.14562405 154.53827512 12.13510152 164.62633231 12.09564835 174.71441638 C12.08323093 178.10053466 12.07745272 181.48639925 12.0871563 184.87253189 C12.09642322 188.64839634 12.08786238 192.4238587 12.07592773 196.19970703 C12.083647 197.30439331 12.09136627 198.40907959 12.09931946 199.54724121 C12.02686717 210.69528311 9.67813254 219.47669055 1.70703125 227.52734375 C-5.98456986 233.722936 -14.56158835 235.57372874 -24.29296875 234.52734375 C-34.32610236 232.15391429 -40.78022805 227.47234786 -46.25 218.84765625 C-48.92494492 212.89665519 -49.58845738 206.95220087 -49.55366516 200.49539185 C-49.55749071 199.72790426 -49.56131626 198.96041668 -49.56525773 198.16967189 C-49.57550656 195.61971638 -49.57161115 193.06998946 -49.56762695 190.52001953 C-49.57197793 188.6828694 -49.57716237 186.84572108 -49.58311462 185.00857544 C-49.59647448 180.03330925 -49.59708664 175.05811916 -49.59455132 170.08283854 C-49.59347954 165.92293403 -49.59837029 161.7630448 -49.60315675 157.60314357 C-49.61424157 147.78571034 -49.61469514 137.96831537 -49.60864258 128.15087891 C-49.60260326 118.03752179 -49.61491512 107.92430381 -49.63621265 97.81097043 C-49.65385046 89.11432515 -49.65982655 80.41772408 -49.6565749 71.72106159 C-49.65476535 66.53298779 -49.65736551 61.34501325 -49.67128944 56.15695572 C-49.6838986 51.27641228 -49.68189449 46.39608515 -49.66887856 41.51554489 C-49.66651993 39.72979915 -49.66922173 37.94403804 -49.67750168 36.15830994 C-49.73528197 22.72258984 -49.21446313 11.54785504 -39.29296875 1.52734375 C-27.67533504 -7.83067161 -12.42238139 -7.97825857 0 0 Z " fill="#53595F" transform="translate(398.29296875,250.47265625)"/>
<path d="M0 0 C5.51711486 5.12974296 8.76779909 10.95938839 9.9609375 18.39453125 C10.04254503 21.0461618 10.07764945 23.66978598 10.05859375 26.3203125 C10.0571788 27.06790329 10.05576385 27.81549408 10.05430603 28.58573914 C10.04873514 30.9595449 10.0361881 33.33325428 10.0234375 35.70703125 C10.01841873 37.32226426 10.01385649 38.93749875 10.00976562 40.55273438 C9.99877525 44.5000368 9.98153082 48.44726772 9.9609375 52.39453125 C11.12028809 52.37358398 12.27963867 52.35263672 13.47412109 52.33105469 C17.81644107 52.25810895 22.158708 52.21253498 26.50146484 52.17480469 C28.37330259 52.15481262 30.24507888 52.12760957 32.11669922 52.09277344 C54.92199012 51.6792375 54.92199012 51.6792375 63.8359375 59.64453125 C69.31945814 65.72296215 72.05656197 72.17082699 71.9609375 80.39453125 C71.33614331 88.82260602 68.28403475 95.59963197 61.8828125 101.21875 C54.33194589 106.67068691 46.34621379 107.71715723 37.20703125 107.58984375 C36.02754662 107.58559891 36.02754662 107.58559891 34.82423401 107.58126831 C32.34880391 107.57020414 29.87375551 107.54512716 27.3984375 107.51953125 C25.7050834 107.50948359 24.01172355 107.5003609 22.31835938 107.4921875 C18.19907497 107.47031023 14.08007061 107.43587843 9.9609375 107.39453125 C10.0214784 122.95435533 10.09898274 138.51401018 10.19665241 154.07364178 C10.24160774 161.29834725 10.28102294 168.52300347 10.30737305 175.74780273 C10.33035534 182.04533975 10.36375579 188.34272082 10.40963906 194.64013416 C10.43356849 197.97424785 10.45074509 201.30817411 10.45855141 204.64237022 C10.4681526 208.36557443 10.49616561 212.0882135 10.52856445 215.8112793 C10.52712936 216.91539154 10.52569427 218.01950378 10.5242157 219.15707397 C10.52732947 226.2929559 10.52732947 226.2929559 13.9609375 232.39453125 C16.72140205 234.64379866 18.25821018 234.38509402 21.8984375 234.26953125 C27.76490168 233.30621887 30.62182018 229.82173675 34.3359375 225.45703125 C39.91942605 218.96713223 45.34537807 215.19829081 54.05078125 214.140625 C62.18280545 213.69757974 69.0653986 216.56062495 75.3359375 221.64453125 C80.59955966 226.58914601 83.49002378 232.63135478 84.19921875 239.8046875 C84.55046256 252.35703192 79.62913806 260.77932664 71.9609375 270.39453125 C71.30609375 271.24660156 70.65125 272.09867187 69.9765625 272.9765625 C60.32847195 284.55053159 43.84636097 292.76173187 28.9609375 294.39453125 C8.13389446 295.90398657 -10.47847486 292.22813592 -26.80078125 278.37890625 C-27.53941406 277.7240625 -28.27804687 277.06921875 -29.0390625 276.39453125 C-29.66425781 275.8634375 -30.28945313 275.33234375 -30.93359375 274.78515625 C-43.70731117 263.13598732 -50.22484003 245.25766278 -51.21960831 228.32051849 C-51.28247285 225.09509822 -51.28689214 221.87537594 -51.26611328 218.64941406 C-51.26640533 217.43821899 -51.26669739 216.22702393 -51.26699829 214.97912598 C-51.26585421 211.69887896 -51.25591289 208.4188088 -51.24185038 205.13859653 C-51.22923869 201.69533132 -51.22816438 198.25206161 -51.22579956 194.80877686 C-51.21961516 188.30677217 -51.20324608 181.80483577 -51.18310058 175.30286098 C-51.16064621 167.89281798 -51.14972431 160.4827715 -51.13970971 153.07270288 C-51.11887669 137.84660781 -51.08376069 122.6205764 -51.0390625 107.39453125 C-52.04138916 107.40649536 -52.04138916 107.40649536 -53.06396484 107.41870117 C-53.95035645 107.42490479 -54.83674805 107.4311084 -55.75 107.4375 C-56.62446777 107.44547607 -57.49893555 107.45345215 -58.39990234 107.46166992 C-66.6072644 107.25287949 -73.58266486 104.68887806 -79.54296875 98.9453125 C-84.53153068 93.271754 -86.70857594 87.60823495 -87.2890625 80.20703125 C-86.69158811 71.09554676 -83.89514185 64.51603067 -77.0390625 58.39453125 C-70.56115097 53.53609761 -65.91747423 52.25676818 -57.7890625 52.33203125 C-55.89414062 52.34556641 -55.89414062 52.34556641 -53.9609375 52.359375 C-52.99671875 52.37097656 -52.0325 52.38257813 -51.0390625 52.39453125 C-51.06000977 51.42217529 -51.08095703 50.44981934 -51.10253906 49.44799805 C-51.17574482 45.78962328 -51.22114994 42.13131114 -51.25878906 38.47241211 C-51.27872334 36.8984076 -51.30588121 35.32447536 -51.34082031 33.75073242 C-51.5885077 22.29519063 -51.24599522 12.39237099 -43.7890625 3.01953125 C-31.52435157 -9.71489202 -14.04397384 -11.05761159 0 0 Z " fill="#53595F" transform="translate(667.0390625,192.60546875)"/>
<path d="M0 0 C6.48449165 5.44440487 9.34216635 12.85513634 10.24814105 21.19097519 C10.35561412 23.86722958 10.37290076 26.52820961 10.35360718 29.20654297 C10.36062714 30.72785733 10.36062714 30.72785733 10.36778891 32.27990532 C10.37968314 35.65288539 10.37030337 39.02545496 10.36083984 42.3984375 C10.36490801 44.82700842 10.37025126 47.25557749 10.37677002 49.68414307 C10.3890046 55.58037694 10.38724827 61.47650557 10.3785321 67.37273645 C10.3717395 72.16742548 10.37084562 76.96208243 10.37410355 81.7567749 C10.37456325 82.44082236 10.37502294 83.12486982 10.37549657 83.82964599 C10.37645581 85.21954935 10.37742845 86.60945269 10.37841435 87.99935603 C10.38695606 101.01318417 10.3771533 114.02694876 10.36101325 127.04076648 C10.34761116 138.19192299 10.3499396 149.3429858 10.36376953 160.49414062 C10.37984694 173.46340793 10.3861322 186.43261964 10.37693274 199.40189552 C10.37597716 200.78650537 10.37503404 202.17111523 10.37410355 203.5557251 C10.37364072 204.23686745 10.37317789 204.91800979 10.37270104 205.61979282 C10.37011763 210.40521326 10.37446811 215.19059824 10.38154221 219.97601318 C10.39086542 226.42424199 10.38416773 232.87233584 10.36685944 239.32054901 C10.36290104 241.68358823 10.36401751 244.04664237 10.37064743 246.4096756 C10.37887841 249.64196833 10.36852212 252.87369979 10.35360718 256.10595703 C10.36364543 257.49946538 10.36364543 257.49946538 10.37388647 258.92112541 C10.27943331 269.51705301 7.49967814 278.05410813 -0.02734375 285.65625 C-7.71894486 291.85184225 -16.29596335 293.70263499 -26.02734375 292.65625 C-36.06047736 290.28282054 -42.51460305 285.60125411 -47.984375 276.9765625 C-51.02527544 270.2114132 -51.31748956 263.62948255 -51.28804016 256.33973694 C-51.29377848 254.8199275 -51.29377848 254.8199275 -51.29963273 253.26941484 C-51.30991837 249.88797122 -51.30597899 246.5066988 -51.30200195 243.12524414 C-51.30635085 240.69534651 -51.31153459 238.26545025 -51.31748962 235.83555603 C-51.32948226 229.92871324 -51.33203344 224.02191264 -51.32968936 218.1150623 C-51.32790342 213.31221675 -51.32966175 208.50938497 -51.3339138 203.70654106 C-51.33450899 203.0219339 -51.33510418 202.33732674 -51.33571741 201.6319739 C-51.33692921 200.24102176 -51.33814334 198.85006961 -51.33935978 197.45911746 C-51.35022562 184.42722303 -51.34807725 171.39535451 -51.34197494 158.36345863 C-51.33680556 146.4522064 -51.34806344 134.54103596 -51.36707316 122.62979991 C-51.38646347 110.38581109 -51.39470553 98.14186093 -51.3909499 85.89785665 C-51.38903981 79.02917281 -51.39150682 72.16055857 -51.40566444 65.29188728 C-51.4188432 58.83302772 -51.41630204 52.37429084 -51.40325356 45.91543007 C-51.40088751 43.54713129 -51.40362343 41.17882101 -51.41187668 38.81053543 C-51.42234302 35.57341615 -51.41424389 32.3368464 -51.40156555 29.0997467 C-51.40893984 28.16646406 -51.41631412 27.23318141 -51.42391187 26.27161747 C-51.34679771 16.8886256 -48.96542804 8.66980719 -42.23828125 1.83984375 C-29.65412696 -9.79685491 -13.81938167 -9.94410533 0 0 Z " fill="#FFE800" transform="translate(232.02734375,14.34375)"/>
<path d="M0 0 C6.95655986 5.40563851 10.44444853 13.17400779 11.9296875 21.71484375 C12.21621448 25.85170947 12.21333054 29.97698782 12.2043457 34.12255859 C12.20945663 35.34636734 12.21456757 36.57017609 12.21983337 37.83106995 C12.23130581 41.16802049 12.23381033 44.50472165 12.23127007 47.84167433 C12.23019524 50.63713657 12.23509681 53.43257628 12.2398755 56.22803366 C12.25094531 62.82847211 12.25142247 69.42885365 12.24536133 76.02929688 C12.23932429 82.81625462 12.25163138 89.6030049 12.2729314 96.38992727 C12.29060145 102.23734358 12.29654024 108.08469418 12.29329365 113.93213618 C12.29148911 117.41554261 12.29403336 120.89880106 12.30800819 124.38218307 C12.32302769 128.27098339 12.31356931 132.15952364 12.30200195 136.04833984 C12.31346756 137.75687386 12.31346756 137.75687386 12.32516479 139.49992371 C12.25694365 149.91434914 10.48597713 159.10959328 2.9296875 166.71484375 C-6.33100476 174.06459952 -14.41277386 175.67918464 -26.0703125 174.71484375 C-33.66438811 172.87951723 -40.23115676 167.82210876 -44.64453125 161.4375 C-47.96545795 155.71865488 -49.18734299 150.88040365 -49.21748352 144.25228882 C-49.22463882 143.16747223 -49.23179413 142.08265564 -49.23916626 140.96496582 C-49.24185516 139.78462769 -49.24454407 138.60428955 -49.24731445 137.38818359 C-49.25388565 136.13715851 -49.26045685 134.88613342 -49.26722717 133.59719849 C-49.28693859 129.45672361 -49.29862465 125.31628742 -49.30859375 121.17578125 C-49.31264425 119.74556077 -49.31676126 118.31534049 -49.32094383 116.88512039 C-49.33998208 110.16233056 -49.3542146 103.4395516 -49.3625558 96.71674001 C-49.3723161 88.97974149 -49.39860952 81.24302997 -49.43905669 73.50613248 C-49.4693127 67.51100255 -49.48403371 61.51595443 -49.48733681 55.52074969 C-49.48967695 51.94720927 -49.49850057 48.37397592 -49.52379799 44.80051804 C-49.55161958 40.80612166 -49.5472188 36.8123585 -49.5402832 32.81787109 C-49.55309326 31.64967834 -49.56590332 30.4814856 -49.57910156 29.27789307 C-49.51465027 19.05177698 -47.33874618 10.01285067 -40.13671875 2.4375 C-28.40227338 -7.34490153 -12.88640221 -7.99929496 0 0 Z " fill="#FFE800" transform="translate(62.0703125,72.28515625)"/>
<path d="M0 0 C7.0074423 4.65106646 11.01054437 10.73102626 13.54582214 18.71994019 C14.1542393 21.77431081 14.15191545 24.69823303 14.17700195 27.81298828 C14.18357315 28.49001297 14.19014435 29.16703766 14.19691467 29.86457825 C14.21658354 32.09982429 14.22829847 34.33500321 14.23828125 36.5703125 C14.24235678 37.33747463 14.2464323 38.10463676 14.25063133 38.89504623 C14.27146897 42.9589994 14.28577827 47.02291908 14.29516602 51.08691406 C14.30620051 55.26291264 14.34057221 59.43837399 14.38033772 63.61418343 C14.40661954 66.84348468 14.41486823 70.07266041 14.41844749 73.30205917 C14.42328694 74.84009283 14.43482465 76.37812189 14.45348549 77.91604996 C14.5892924 89.85453071 13.353119 99.29757358 4.93359375 108.2421875 C-2.87932064 115.34483695 -9.85951771 116.48542527 -20.234375 116.2734375 C-28.74871239 115.65517649 -35.44010033 111.39570158 -41 105 C-45.45487581 97.92525926 -47.11777078 91.73957117 -47.14526367 83.40893555 C-47.15164352 82.09374435 -47.15802338 80.77855316 -47.16459656 79.42350769 C-47.16612562 77.99457842 -47.16723937 76.56564865 -47.16796875 75.13671875 C-47.17118523 73.66087309 -47.17454959 72.18502774 -47.17805481 70.70918274 C-47.18403367 67.61837017 -47.18589603 64.52758552 -47.18530273 61.43676758 C-47.18520127 57.49281589 -47.19884283 53.54904486 -47.21607494 49.60513592 C-47.2272413 46.55692232 -47.22922051 43.50875174 -47.22869301 40.46051979 C-47.22986655 39.0073872 -47.23425288 37.55425326 -47.24202538 36.10114098 C-47.2996694 24.20971731 -46.62215802 13.61886037 -38.46875 4.23828125 C-27.9090671 -5.64896901 -12.48526712 -7.20468326 0 0 Z " fill="#FFE800" transform="translate(396,101)"/>
<path d="M0 0 C6.17161261 4.89792145 10.22263976 11.7605277 11.70703125 19.52734375 C12.58657204 30.26788997 10.58099306 38.18444959 3.66015625 46.515625 C-2.55317252 52.91535364 -9.89116495 55.46964464 -18.66796875 55.83984375 C-28.02295202 55.51891808 -34.34287969 52.57328257 -41.08984375 46.0703125 C-46.92510712 39.33492871 -49.68418675 31.66965958 -49.5 22.76171875 C-48.70787584 14.21275609 -45.3082484 7.60265613 -39.29296875 1.52734375 C-27.67533504 -7.83067161 -12.42238139 -7.97825857 0 0 Z " fill="#FFE800" transform="translate(314.29296875,72.47265625)"/>
<path d="M0 0 C7.98119126 5.28420718 13.33208717 11.3646107 15.6015625 20.890625 C17.01722826 29.77071025 15.50208799 38.14001734 10.30078125 45.56640625 C5.57716617 51.35664408 0.24377273 55.37218198 -7.01171875 57.31640625 C-18.31324202 58.38563727 -26.34983262 57.18533544 -35.26171875 50.19140625 C-40.90634892 44.9749117 -44.41940937 37.76371051 -45.25 30.125 C-45.52562802 21.31941001 -43.34335025 13.69902683 -37.63671875 6.87890625 C-28.05568178 -3.11070373 -12.65534451 -6.84008263 0 0 Z " fill="#FFE800" transform="translate(142.01171875,159.68359375)"/>
</svg>
