<?xml version="1.0" encoding="utf-8"?>
<!-- Generator: Adobe Illustrator 25.0.1, SVG Export Plug-In . SVG Version: 6.00 Build 0)  -->
<svg version="1.0" id="katman_1" xmlns="http://www.w3.org/2000/svg" xmlns:xlink="http://www.w3.org/1999/xlink" x="0px" y="0px"
	 viewBox="0 0 560 400" style="enable-background:new 0 0 560 400;" xml:space="preserve">
<style type="text/css">
	.st0{fill-rule:evenodd;clip-rule:evenodd;fill:#EC2127;}
</style>
<path class="st0" d="M247.8,154h-25.7c-27.4,0-49.5,22.1-49.5,49.6v70.6h35.7v-68.9c0-10.3,8.3-18.6,18.7-18.6h20.9V154z M406.5,201
	c0.4-11.1,10.7-20.1,23.4-20.1c12.9,0,23.3,8.9,23.5,20.1H406.5z M488,217.7c-0.3-37.2-20.5-66.5-58.1-66.5
	c-32.2,0-58.3,26.1-58.3,62c0,38.7,23.7,61.7,58.6,62.4c22.7,0,42.5-12.7,52.6-31.4l-32.6-8.5c-4,5.9-11.6,10.1-20.2,10.1
	c-12.7,0-23-9.1-23.4-20.2H488C488,223.7,488,219.5,488,217.7 M329.2,225.6c0,10.2-8.3,18.6-18.7,18.6c-10.3,0-18.5-8.4-18.5-18.6
	v-54.4c0-9.5-7.7-17.2-17.3-17.2h-18.6v67c0,30.2,16.3,54.6,54.4,54.6c38.1,0,54.4-24.4,54.4-54.6v-67h-35.7V225.6z M124.5,124.5
	H88.8V154H72v32.7h16.8V225c0,30,24.3,49.2,54.3,49.2h21.1v-31.3h-21.1c-10.3,0-18.6-8.4-18.6-18.6v-37.6l23.4-0.1
	c9.1-0.4,16.3-7.9,16.3-17.1V154h-39.7V124.5z"/>
</svg>
