<?xml version="1.0" encoding="UTF-8"?><svg id="a" xmlns="http://www.w3.org/2000/svg" width="1779.7" height="1498.1" viewBox="0 0 1779.7 1498.1"><path d="m1151.52,262.4h185.61c-27.03-76.44-99.92-131.2-185.61-131.2-108.69,0-196.8,88.11-196.8,196.8s88.11,196.8,196.8,196.8h118.21v131.2h-118.21c-181.15,0-328-146.85-328-328S970.37,0,1151.52,0c158.69,0,291.06,112.69,321.44,262.4,4.3,21.2,6.56,43.14,6.56,65.6s-2.27,44.4-6.56,65.6h-321.44v-131.2Z" style="fill:#00df83;"/><rect x="1308.96" y="524.81" width="131.2" height="131.2" style="fill:#005d4b;"/><path d="m954.72,852.81V328h-131.2v524.81c0,108.69-88.11,196.8-196.8,196.8s-196.8-88.11-196.8-196.8,81.11-189.62,183.68-196.37v-131.37c-175.07,6.89-314.88,150.99-314.88,327.75s146.85,328,328,328,328-146.85,328-328m-328-328,328,328" style="fill:#005d4b;"/><rect x="652.96" y="524.81" width="131.2" height="131.2" style="fill:#00df83;"/><path d="m2.91,1356.14c0-3.98.66-7.27,1.98-9.89,1.32-2.61,3.65-4.43,6.99-5.44l-11.87-3.16v-15.09c3.65-3.04,8.13-5.58,13.43-7.61,5.32-2.02,11.15-3.04,17.51-3.04,9.93,0,17.39,2.01,22.4,6.02,5,4.02,7.5,10.75,7.5,20.19v38.14h-15.7v-38.49c0-4.91-1.14-8.41-3.43-10.48-2.29-2.06-6.15-3.1-11.58-3.1-3.33,0-6.48.51-9.42,1.52-2.95,1.01-5.35,2.3-7.21,3.86v1.64l12.91,3.51v9.59c-3.03.78-5.08,2.05-6.16,3.8-1.09,1.75-1.63,4.47-1.63,8.13v20.01H2.91v-20.13Z" style="fill:#005d4b;"/><path d="m83.24,1376.5c-4-.62-7.19-1.44-9.6-2.46v-12.76c2.79,1.17,5.97,2.11,9.54,2.81,3.57.7,6.82,1.06,9.77,1.06,5.28,0,9-.41,11.17-1.23,2.17-.82,3.25-2.4,3.25-4.74,0-1.48-.4-2.69-1.22-3.63-.82-.93-1.98-1.73-3.49-2.4-1.51-.66-3.9-1.54-7.15-2.63l-5-1.64c-6.28-2.18-10.88-4.58-13.79-7.2-2.91-2.61-4.36-6.26-4.36-10.94,0-5.77,2.23-10.35,6.69-13.75,4.45-3.4,10.95-5.09,19.49-5.09,3.49,0,7.08.28,10.76.82,3.68.55,6.72,1.21,9.13,1.99v12.63c-2.41-1.01-5.26-1.79-8.55-2.34-3.3-.55-6.34-.82-9.13-.82-4.2,0-7.49.45-9.9,1.35-2.4.9-3.61,2.52-3.61,4.85,0,1.8.82,3.16,2.45,4.1,1.63.93,4.65,2.11,9.07,3.51,1.4.39,3.18.98,5.36,1.75,4.49,1.56,8.05,3.16,10.64,4.8,2.59,1.64,4.5,3.61,5.7,5.91,1.2,2.3,1.81,5.21,1.81,8.72,0,6.01-2.31,10.55-6.93,13.64-4.61,3.08-11.1,4.62-19.49,4.62-4.42,0-8.63-.31-12.62-.93Z" style="fill:#005d4b;"/><path d="m130.88,1321.27h13.27v5.73h16.17l-.46,11.58h-28.97v-17.32Zm0,31.36h13.27v5.73h16.17l-.46,11.58h-28.97v-17.32Z" style="fill:#005d4b;"/><path d="m170.78,1313.08h14.43l.7,6.2c2.87-2.34,6.14-4.15,9.83-5.44,3.69-1.29,7.66-1.93,11.92-1.93,6.59,0,11.77,2.03,15.54,6.08,3.76,4.06,5.64,9.64,5.64,16.74v41.54h-15.7v-40.6c0-3.98-.93-6.88-2.79-8.72-1.87-1.83-4.7-2.75-8.49-2.75-2.88,0-5.73.63-8.56,1.87-2.83,1.25-5.1,2.81-6.8,4.68v45.52h-15.7v-63.18Z" style="fill:#005d4b;"/><path d="m251.22,1376.5c-4-.62-7.19-1.44-9.6-2.46v-12.76c2.79,1.17,5.97,2.11,9.54,2.81,3.57.7,6.82,1.06,9.77,1.06,5.28,0,9-.41,11.17-1.23,2.17-.82,3.25-2.4,3.25-4.74,0-1.48-.4-2.69-1.22-3.63-.82-.93-1.98-1.73-3.49-2.4-1.51-.66-3.9-1.54-7.15-2.63l-5-1.64c-6.28-2.18-10.88-4.58-13.79-7.2-2.91-2.61-4.36-6.26-4.36-10.94,0-5.77,2.23-10.35,6.69-13.75,4.45-3.4,10.95-5.09,19.49-5.09,3.49,0,7.08.28,10.76.82,3.68.55,6.72,1.21,9.13,1.99v12.63c-2.41-1.01-5.26-1.79-8.55-2.34-3.3-.55-6.34-.82-9.13-.82-4.2,0-7.49.45-9.9,1.35-2.4.9-3.61,2.52-3.61,4.85,0,1.8.82,3.16,2.45,4.1,1.63.93,4.65,2.11,9.07,3.51,1.4.39,3.18.98,5.36,1.75,4.49,1.56,8.05,3.16,10.64,4.8,2.59,1.64,4.5,3.61,5.7,5.91,1.2,2.3,1.81,5.21,1.81,8.72,0,6.01-2.31,10.55-6.93,13.64-4.61,3.08-11.1,4.62-19.49,4.62-4.42,0-8.63-.31-12.62-.93Z" style="fill:#005d4b;"/><path d="m297.01,1373.69v-12.05c5.27,2.34,10.7,3.51,16.28,3.51,7.37,0,12.6-1.54,15.7-4.62,3.11-3.08,4.66-8.36,4.66-15.85s-1.55-12.78-4.66-15.86c-3.11-3.08-8.33-4.62-15.7-4.62-5.58,0-11.02,1.17-16.28,3.51v-12.05c5.82-2.5,12.48-3.74,20.01-3.74,10.54,0,18.44,2.77,23.67,8.31,5.24,5.54,7.85,13.69,7.85,24.46s-2.61,18.91-7.85,24.45c-5.24,5.54-13.13,8.31-23.67,8.31-7.53,0-14.19-1.25-20.01-3.74Z" style="fill:#005d4b;"/><path d="m369.01,1375.68l-17.69-43.29h15.24l13.85,33.82c5.74,0,9.93-1.95,12.57-5.85,2.63-3.9,3.95-9.79,3.95-17.66,0-4.76-.44-8.44-1.34-11.06-.89-2.61-2.35-4.49-4.36-5.62-2.01-1.13-4.81-1.7-8.37-1.7h-4.78v-11.23h6.99c9.15,0,15.89,2.42,20.23,7.26,4.34,4.84,6.52,12.28,6.52,22.35,0,11.86-2.67,20.61-8.03,26.27-5.35,5.66-12.64,8.48-21.87,8.48-4.96,0-9.27-.58-12.91-1.75Z" style="fill:#005d4b;"/><path d="m424.45,1369.66c-4.77-5.19-7.15-13.09-7.15-23.69s2.79-19.23,8.37-25.16c5.59-5.93,13.73-8.89,24.43-8.89,7.13,0,13.09,1.21,17.87,3.63,4.77,2.42,8.25,5.62,10.47,9.6,2.21,3.98,3.31,8.31,3.31,12.99v38.14h-15.7v-37.09c0-4.76-1.22-8.44-3.67-11.06-2.44-2.61-6.61-3.92-12.5-3.92-11.79,0-17.69,7.26-17.69,21.77,0,6.86,1.19,11.78,3.55,14.74,2.37,2.96,5.92,4.45,10.65,4.45,3.56,0,6.24-.31,8.02-.94v11.59c-2.87,1.09-6.48,1.64-10.82,1.64-7.99,0-14.37-2.59-19.13-7.78Z" style="fill:#005d4b;"/><path d="m431.72,1293.66h50.02v10.77h-50.84l.82-10.77Z" style="fill:#005d4b;"/><path d="m514.84,1376.91c-2.21-.35-3.98-.76-5.3-1.23l-8.83-23.75h-8.61l.7-11.23h17.8l9.19,24.69c4.96,0,8.73-1.71,11.28-5.14,2.56-3.43,3.84-8.82,3.84-16.15,0-5.15-.66-9.15-1.98-11.99-1.32-2.85-3.49-4.87-6.52-6.08s-7.25-1.82-12.68-1.82c-3.18,0-6.54.26-10.06.76-3.54.51-6.85,1.27-9.96,2.28v-11.7c7.61-2.42,15.64-3.63,24.09-3.63,11.16,0,19.29,2.69,24.37,8.07,5.08,5.39,7.62,13.42,7.62,24.11,0,7.02-1.32,13.05-3.95,18.08-2.64,5.03-6.17,8.83-10.58,11.4-4.42,2.57-9.28,3.86-14.54,3.86-1.71,0-3.67-.18-5.88-.53Z" style="fill:#005d4b;"/><path d="m496.88,1293.66h50.02v10.77h-50.84l.82-10.77Z" style="fill:#005d4b;"/><path d="m560.74,1313.08h14.43l.7,6.2c2.87-2.34,6.14-4.15,9.83-5.44,3.69-1.29,7.66-1.93,11.92-1.93,6.59,0,11.77,2.03,15.54,6.08,3.76,4.06,5.64,9.64,5.64,16.74v41.54h-15.7v-40.6c0-3.98-.93-6.88-2.79-8.72-1.87-1.83-4.7-2.75-8.49-2.75-2.88,0-5.73.63-8.56,1.87-2.83,1.25-5.1,2.81-6.8,4.68v45.52h-15.7v-63.18Z" style="fill:#005d4b;"/><path d="m589.47,1285.82h12.8v7.84h28.97l-.58,10.77h-41.19v-18.6Z" style="fill:#005d4b;"/><path d="m636.7,1372.64c-4.03-3.2-6.04-8.23-6.04-15.09,0-6.32,2.12-11.17,6.4-14.57,4.27-3.39,10.39-5.09,18.38-5.09h17.8v-3.04c0-3.9-1.08-6.65-3.25-8.25-2.17-1.6-6.01-2.4-11.52-2.4-7.29,0-14.23,1.06-20.82,3.16v-11.82c3.33-1.09,7.1-1.97,11.28-2.63,4.19-.66,8.23-1,12.1-1,9.39,0,16.38,2.01,21,6.02,4.62,4.02,6.92,10.2,6.92,18.55v39.78h-15.7v-26.79h-16.86c-3.57,0-6.27.62-8.09,1.87-1.83,1.25-2.73,3.32-2.73,6.2s.84,4.87,2.5,5.97c1.67,1.1,4.56,1.64,8.67,1.64,3.57,0,6.24-.31,8.03-.94v11.59c-3.49,1.09-7.56,1.64-12.22,1.64-6.52,0-11.79-1.6-15.82-4.8Z" style="fill:#005d4b;"/><path d="m706.28,1373.17c-2.09-2.06-3.14-5.4-3.14-10v-50.08h15.7v45.99c0,3.27,1.59,4.91,4.78,4.91h3.95v12.28h-10.7c-4.96,0-8.49-1.03-10.58-3.1Z" style="fill:#005d4b;"/><path d="m735.13,1313.08h15.12l8.25,40.6,9.54-30.54v-10.06h10.94l11.16,40.6,8.03-40.6h15.01l-14.66,63.18h-13.61l-10.35-36.15-11.17,36.15h-13.61l-14.65-63.18Z" style="fill:#005d4b;"/><path d="m759.1,1293.66h21.29v-9.47h11.06v9.47h6.62v-9.47h11.06v20.24h-50.84l.82-10.77Z" style="fill:#005d4b;"/><path d="m798.06,1258.84h11.06v19.31h-11.06v-19.31Z" style="fill:#005d4b;"/><path d="m832.45,1376.09c-4.54-.89-8.48-2.08-11.81-3.57v-33.23h26.64l.7,11.59h-12.45v12.75c1.4.47,3.14.84,5.24,1.11,2.09.28,4.07.41,5.94.41,4.27,0,7.64-.66,10.12-1.99,2.48-1.33,4.28-3.45,5.41-6.38,1.12-2.92,1.69-6.88,1.69-11.88,0-5.38-.68-9.55-2.03-12.52-1.37-2.96-3.55-5.07-6.57-6.32-3.03-1.24-7.21-1.87-12.57-1.87-7.44,0-14.54,1.06-21.29,3.16v-11.82c3.41-1.17,7.37-2.06,11.86-2.69,4.5-.62,8.92-.94,13.27-.94,11.09,0,19.23,2.77,24.43,8.31,5.2,5.54,7.79,13.77,7.79,24.69s-2.59,18.78-7.79,24.28c-5.2,5.5-13.35,8.25-24.43,8.25-4.88,0-9.6-.45-14.13-1.35Z" style="fill:#005d4b;"/><path d="m893.22,1373.17c-2.09-2.06-3.14-5.4-3.14-10v-50.08h15.7v45.99c0,3.27,1.59,4.91,4.78,4.91h3.95v12.28h-10.7c-4.96,0-8.49-1.03-10.58-3.1Z" style="fill:#005d4b;"/><path d="m925.57,1337.07c0-7.96,2.42-14.14,7.27-18.54,4.84-4.41,12.3-6.61,22.4-6.61,3.71,0,7.4.39,11.05,1.17h24.43l-.82,12.05h-8.25c1.08,1.33,1.88,3.06,2.38,5.21.51,2.14.76,4.39.76,6.73v39.2h-15.7v-40.37c0-3.82-1.22-6.73-3.67-8.72-2.44-1.99-5.84-2.99-10.17-2.99-4.58,0-8.05,1-10.42,2.99-2.37,1.99-3.55,4.89-3.55,8.72v11.35c3.25-2.49,6.9-3.74,10.94-3.74h7.56l.47,12.52h-8.38c-4.11,0-7.64,1.14-10.58,3.4v16.85h-15.7v-39.2Z" style="fill:#005d4b;"/><path d="m1010.21,1376.5c-4-.62-7.19-1.44-9.6-2.46v-12.76c2.79,1.17,5.97,2.11,9.54,2.81,3.57.7,6.82,1.06,9.77,1.06,5.28,0,9-.41,11.17-1.23,2.17-.82,3.25-2.4,3.25-4.74,0-1.48-.4-2.69-1.22-3.63-.82-.93-1.98-1.73-3.49-2.4-1.51-.66-3.9-1.54-7.15-2.63l-5-1.64c-6.28-2.18-10.88-4.58-13.79-7.2-2.91-2.61-4.36-6.26-4.36-10.94,0-5.77,2.23-10.35,6.69-13.75,4.45-3.4,10.95-5.09,19.49-5.09,3.49,0,7.08.28,10.76.82,3.68.55,6.72,1.21,9.13,1.99v12.63c-2.41-1.01-5.26-1.79-8.55-2.34-3.3-.55-6.34-.82-9.13-.82-4.2,0-7.49.45-9.9,1.35-2.4.9-3.61,2.52-3.61,4.85,0,1.8.82,3.16,2.45,4.1,1.63.93,4.65,2.11,9.07,3.51,1.4.39,3.18.98,5.36,1.75,4.49,1.56,8.05,3.16,10.64,4.8,2.59,1.64,4.5,3.61,5.7,5.91,1.2,2.3,1.81,5.21,1.81,8.72,0,6.01-2.31,10.55-6.93,13.64-4.61,3.08-11.1,4.62-19.49,4.62-4.42,0-8.63-.31-12.62-.93Z" style="fill:#005d4b;"/><path d="m1068.02,1370.71c-5.24-4.49-7.85-11.1-7.85-19.83v-37.8h15.7v38.03c0,4.76,1.18,8.29,3.55,10.59,2.37,2.3,5.92,3.45,10.64,3.45s8.28-1.15,10.64-3.45c2.37-2.3,3.55-5.83,3.55-10.59v-7.13h-13.37v-11.59h13.37v-19.31h15.71v19.31h6.62l-1.04,11.59h-5.58v6.9c0,8.74-2.62,15.35-7.85,19.83-5.24,4.49-12.59,6.73-22.05,6.73s-16.8-2.24-22.04-6.73Z" style="fill:#005d4b;"/><path d="m1153.88,1376.91c-2.21-.35-3.98-.76-5.3-1.23l-8.83-23.75h-8.61l.7-11.23h17.8l9.19,24.69c4.96,0,8.73-1.71,11.28-5.14,2.56-3.43,3.84-8.82,3.84-16.15,0-5.15-.66-9.15-1.98-11.99-1.32-2.85-3.49-4.87-6.52-6.08-3.03-1.21-7.25-1.82-12.68-1.82-3.18,0-6.54.26-10.06.76-3.54.51-6.85,1.27-9.96,2.28v-11.7c7.61-2.42,15.64-3.63,24.09-3.63,3.95,0,7.87.39,11.75,1.17h26.52l-.82,12.05h-10.24c1.63,2.65,2.83,5.44,3.61,8.37.78,2.92,1.16,6.45,1.16,10.59,0,7.02-1.32,13.05-3.95,18.08-2.64,5.03-6.17,8.83-10.58,11.4-4.42,2.57-9.28,3.86-14.54,3.86-1.71,0-3.67-.18-5.88-.53Zm1.34,18.2c-2.09,3.67-5.62,5.5-10.58,5.5h-10.48l.7-11.94h6.87c2.25,0,3.97-.39,5.18-1.17,1.2-.78,2.15-2.11,2.85-3.98h10c.46,1.87,1.26,3.28,2.38,4.22,1.13.93,2.74,1.4,4.84,1.4,4.27,0,6.4-1.99,6.4-5.97v-2.69h13.03v2.93c0,5.46-1.53,9.71-4.6,12.75-3.07,3.04-7.54,4.56-13.43,4.56s-10.36-1.87-13.15-5.62Z" style="fill:#005d4b;"/><path d="m1204.89,1356.14c0-3.98.66-7.27,1.98-9.89,1.32-2.61,3.65-4.43,6.99-5.44l-11.87-3.16v-15.09c3.65-3.04,8.13-5.58,13.43-7.61,5.32-2.02,11.15-3.04,17.51-3.04,9.93,0,17.39,2.01,22.4,6.02,5,4.02,7.5,10.75,7.5,20.19v38.14h-15.7v-38.49c0-4.91-1.14-8.41-3.43-10.48-2.29-2.06-6.15-3.1-11.58-3.1-3.33,0-6.48.51-9.42,1.52-2.95,1.01-5.35,2.3-7.21,3.86v1.64l12.91,3.51v9.59c-3.03.78-5.08,2.05-6.16,3.8-1.09,1.75-1.63,4.47-1.63,8.13v20.01h-15.7v-20.13Z" style="fill:#005d4b;"/><path d="m1212.81,1293.66h50.02v10.77h-50.84l.82-10.77Z" style="fill:#005d4b;"/><path d="m1295.92,1376.91c-2.21-.35-3.98-.76-5.3-1.23l-8.83-23.75h-8.61l.7-11.23h17.8l9.19,24.69c4.96,0,8.73-1.71,11.28-5.14,2.56-3.43,3.84-8.82,3.84-16.15,0-5.15-.66-9.15-1.98-11.99-1.32-2.85-3.49-4.87-6.52-6.08-3.03-1.21-7.25-1.82-12.68-1.82-3.18,0-6.54.26-10.06.76-3.54.51-6.85,1.27-9.96,2.28v-11.7c7.61-2.42,15.64-3.63,24.09-3.63,11.16,0,19.29,2.69,24.37,8.07,5.08,5.39,7.62,13.42,7.62,24.11,0,7.02-1.32,13.05-3.95,18.08-2.64,5.03-6.17,8.83-10.58,11.4-4.42,2.57-9.28,3.86-14.54,3.86-1.71,0-3.67-.18-5.88-.53Z" style="fill:#005d4b;"/><path d="m1345.31,1373.17c-2.09-2.06-3.14-5.4-3.14-10v-50.08h15.7v45.99c0,3.27,1.59,4.91,4.78,4.91h3.95v12.28h-10.7c-4.96,0-8.49-1.03-10.58-3.1Zm29.78,0c-2.09-2.06-3.13-5.4-3.13-10v-50.08h15.7v45.99c0,3.27,1.59,4.91,4.77,4.91h3.96v12.28h-10.7c-4.96,0-8.49-1.03-10.59-3.1Z" style="fill:#005d4b;"/><path d="m1411.27,1372.64c-4.03-3.2-6.04-8.23-6.04-15.09,0-6.32,2.12-11.17,6.4-14.57,4.27-3.39,10.39-5.09,18.38-5.09h17.8v-3.04c0-3.9-1.08-6.65-3.25-8.25-2.17-1.6-6.01-2.4-11.52-2.4-7.29,0-14.23,1.06-20.82,3.16v-11.82c3.33-1.09,7.1-1.97,11.28-2.63,4.19-.66,8.23-1,12.1-1,9.39,0,16.38,2.01,21,6.02,4.62,4.02,6.92,10.2,6.92,18.55v39.78h-15.7v-26.79h-16.86c-3.57,0-6.27.62-8.09,1.87-1.83,1.25-2.73,3.32-2.73,6.2s.84,4.87,2.5,5.97c1.67,1.1,4.56,1.64,8.67,1.64,3.57,0,6.24-.31,8.03-.94v11.59c-3.49,1.09-7.56,1.64-12.22,1.64-6.52,0-11.79-1.6-15.82-4.8Z" style="fill:#005d4b;"/><path d="m1475.02,1321.27h13.27v5.73h16.17l-.46,11.58h-28.97v-17.32Zm0,31.36h13.27v5.73h16.17l-.46,11.58h-28.97v-17.32Z" style="fill:#005d4b;"/><path d="m1518.99,1372.64c-4.03-3.2-6.04-8.23-6.04-15.09,0-6.32,2.12-11.17,6.4-14.57,4.27-3.39,10.39-5.09,18.38-5.09h17.8v-3.04c0-3.9-1.08-6.65-3.25-8.25-2.17-1.6-6.01-2.4-11.52-2.4-7.29,0-14.23,1.06-20.82,3.16v-11.82c3.33-1.09,7.1-1.97,11.28-2.63,4.19-.66,8.23-1,12.1-1,4.34,0,8.07.39,11.17,1.17h21.87l-.82,12.05h-7.1c1.87,2.88,2.79,6.67,2.79,11.35v39.78h-15.7v-26.79h-16.86c-3.57,0-6.27.62-8.09,1.87-1.83,1.25-2.73,3.32-2.73,6.2s.84,4.87,2.5,5.97c1.67,1.1,4.56,1.64,8.67,1.64,3.57,0,6.24-.31,8.03-.94v11.59c-3.49,1.09-7.56,1.64-12.22,1.64-6.52,0-11.79-1.6-15.82-4.8Z" style="fill:#005d4b;"/><path d="m1544.12,1285.82h12.8v7.84h28.97l-.58,10.77h-41.19v-18.6Z" style="fill:#005d4b;"/><path d="m1597.99,1375.68l-17.69-43.29h15.24l13.85,33.82c5.74,0,9.93-1.95,12.57-5.85,2.63-3.9,3.95-9.79,3.95-17.66,0-4.76-.44-8.44-1.34-11.06-.89-2.61-2.35-4.49-4.36-5.62-2.01-1.13-4.81-1.7-8.37-1.7h-4.78v-11.23h6.99c9.15,0,15.89,2.42,20.23,7.26,4.34,4.84,6.52,12.28,6.52,22.35,0,11.86-2.67,20.61-8.03,26.27-5.35,5.66-12.64,8.48-21.87,8.48-4.96,0-9.27-.58-12.91-1.75Z" style="fill:#005d4b;"/><path d="m1648.6,1337.07c0-7.96,2.42-14.14,7.27-18.54,4.84-4.41,12.3-6.61,22.4-6.61s17.52,2.21,22.33,6.61c4.82,4.41,7.21,10.59,7.21,18.54v39.2h-15.7v-40.37c0-3.82-1.22-6.73-3.67-8.72-2.44-1.99-5.84-2.99-10.17-2.99-4.58,0-8.05,1-10.42,2.99-2.37,1.99-3.55,4.89-3.55,8.72v11.35c3.25-2.49,6.9-3.74,10.94-3.74h7.56l.47,12.52h-8.38c-4.11,0-7.64,1.14-10.58,3.4v16.85h-15.7v-39.2Z" style="fill:#005d4b;"/><path d="m1731.98,1370.07l-.7,6.2h-14.43v-63.18h15.7v45.52c1.7,1.87,3.97,3.43,6.8,4.68,2.83,1.25,5.68,1.87,8.56,1.87,3.79,0,6.62-.94,8.49-2.81,1.86-1.87,2.79-4.91,2.79-9.12v-40.13h15.7v41.07c0,7.26-1.94,12.95-5.82,17.08-3.88,4.14-9.19,6.2-15.94,6.2-8.07,0-15.12-2.46-21.17-7.37Z" style="fill:#005d4b;"/><path d="m0,1442.49h11.5l15.98,32.9,15.98-32.9h11.41v54.76h-11.41v-35.63l-12.68,26.19h-6.6l-12.77-26.19v35.63H0v-54.76Z" style="fill:#005d4b;"/><path d="m64.51,1442.49h11.41v54.76h-11.41v-54.76Z" style="fill:#005d4b;"/><path d="m85.56,1442.49h9.9l25.79,36.48v-36.48h11.41v54.76h-9.9l-25.79-36.48v36.48h-11.41v-54.76Z" style="fill:#005d4b;"/><path d="m142.29,1442.49h11.41v54.76h-11.41v-54.76Z" style="fill:#005d4b;"/><path d="m162.68,1495.13v-10.12c2.53,1.02,5.24,1.84,8.11,2.47,2.88.63,5.66.94,8.37.94,4.22,0,7.2-.4,8.92-1.19,1.71-.79,2.58-2.44,2.58-4.93,0-1.64-.39-2.94-1.19-3.91-.79-.97-2.08-1.8-3.89-2.51-1.8-.7-4.62-1.6-8.45-2.68-5.69-1.59-9.7-3.57-12-5.95-2.31-2.38-3.47-5.67-3.47-9.87,0-5.05,1.83-8.93,5.49-11.65,3.66-2.72,8.99-4.08,15.97-4.08,3.16,0,6.16.21,9.01.64,2.85.42,5.17.97,6.97,1.65v10.12c-4.62-1.76-9.44-2.64-14.46-2.64-3.83,0-6.7.43-8.58,1.28-1.89.85-2.84,2.41-2.84,4.68,0,1.42.35,2.55,1.05,3.4.71.85,1.89,1.6,3.55,2.26,1.66.65,4.24,1.43,7.73,2.34,6.31,1.7,10.68,3.89,13.11,6.59,2.42,2.69,3.63,6.13,3.63,10.33,0,4.93-1.85,8.8-5.57,11.61-3.72,2.81-9.22,4.21-16.48,4.21s-13.14-.99-17.59-2.98Z" style="fill:#005d4b;"/><path d="m221.51,1451.33h-16.74v-8.84h44.81v8.84h-16.65v45.92h-11.41v-45.92Z" style="fill:#005d4b;"/><path d="m255.83,1442.49h26.12c6.1,0,10.64,1.61,13.66,4.84,3.01,3.23,4.52,7.74,4.52,13.52,0,3.69-.95,6.86-2.83,9.53-1.89,2.66-4.56,4.59-8,5.78.85.74,1.54,1.52,2.08,2.34.53.82,1.11,1.97,1.73,3.44l6.59,15.31h-11.84l-6.42-14.71c-.56-1.3-1.2-2.2-1.9-2.68-.71-.48-1.82-.72-3.34-.72h-8.97v18.11h-11.41v-54.76Zm23.17,27.12c3.1,0,5.47-.69,7.1-2.08,1.63-1.39,2.45-3.61,2.45-6.68s-.73-5.3-2.2-6.72-3.69-2.13-6.68-2.13h-12.44v17.6h11.76Z" style="fill:#005d4b;"/><path d="m320.44,1477.02l-19.53-34.52h11.92l13.36,24.75,13.35-24.75h11.84l-19.53,34.52v20.24h-11.41v-20.24Z" style="fill:#005d4b;"/><path d="m388.07,1470.13c0-9.87,2.18-17.08,6.55-21.64,4.37-4.56,11.01-6.84,19.91-6.84s15.54,2.28,19.91,6.84c4.37,4.56,6.55,11.78,6.55,21.64,0,18.65-8.81,27.98-26.46,27.98s-26.46-9.33-26.46-27.98Zm37.71,13.73c2.42-2.98,3.63-7.55,3.63-13.73,0-6.75-1.18-11.55-3.55-14.42-2.37-2.86-6.14-4.29-11.33-4.29s-8.96,1.43-11.32,4.29c-2.37,2.87-3.55,7.67-3.55,14.42,0,6.18,1.21,10.75,3.63,13.73,2.42,2.97,6.17,4.47,11.25,4.47s8.82-1.49,11.25-4.47Z" style="fill:#005d4b;"/><path d="m448.94,1442.49h38.31v8.93h-26.89v14.03h23.76v8.84h-23.76v22.96h-11.41v-54.76Z" style="fill:#005d4b;"/><path d="m523.94,1442.49h22.84c8.34,0,14.53,2.17,18.59,6.5,4.07,4.34,6.1,11.38,6.1,21.13s-2.03,16.14-6.1,20.54c-4.06,4.39-10.25,6.59-18.59,6.59h-22.84v-54.76Zm21.22,45.92c3.45,0,6.2-.51,8.29-1.53,2.09-1.02,3.67-2.86,4.78-5.53,1.1-2.66,1.64-6.41,1.64-11.22s-.49-8.62-1.48-11.23c-.98-2.6-2.52-4.41-4.61-5.4-2.09-.99-4.96-1.49-8.63-1.49h-9.81v36.4h9.81Z" style="fill:#005d4b;"/><path d="m579.4,1442.49h11.41v54.76h-11.41v-54.76Z" style="fill:#005d4b;"/><path d="m605.94,1490.92c-4.79-4.79-7.18-11.49-7.18-20.11,0-9.18,2.43-16.34,7.31-21.47,4.87-5.13,11.96-7.7,21.27-7.7,6.19,0,11.67.77,16.4,2.29v9.87c-4.39-1.59-9.58-2.38-15.55-2.38-6.37,0-10.94,1.58-13.7,4.72-2.77,3.15-4.15,8.04-4.15,14.67,0,11.73,5.49,17.6,16.48,17.6,3.78,0,7.28-.57,10.49-1.7v-12.75h-12.68v-7.31h22.32v26.78c-2.15,1.36-4.9,2.48-8.29,3.36-3.38.88-7.39,1.32-12,1.32-9.02,0-15.92-2.4-20.72-7.19Z" style="fill:#005d4b;"/><path d="m654.89,1442.49h11.41v54.76h-11.41v-54.76Z" style="fill:#005d4b;"/><path d="m689.31,1451.33h-16.74v-8.84h44.81v8.84h-16.65v45.92h-11.41v-45.92Z" style="fill:#005d4b;"/><path d="m732.18,1442.49h12.52l20.71,54.76h-11.84l-5.16-13.18h-20.04l-5.07,13.18h-11.92l20.8-54.76Zm14.54,32.74l-8.37-22.02-8.29,22.02h16.66Z" style="fill:#005d4b;"/><path d="m773.35,1442.49h11.41v45.92h26.8v8.84h-38.22v-54.76Z" style="fill:#005d4b;"/><path d="m848.26,1442.49h39.06v8.93h-27.65v14.03h24.52v8.84h-24.52v14.12h27.65v8.84h-39.06v-54.76Z" style="fill:#005d4b;"/><path d="m896.28,1490.75c-4.9-4.9-7.36-11.69-7.36-20.36,0-9.19,2.37-16.27,7.14-21.26,4.77-4.99,11.77-7.48,21.01-7.48,5.86,0,11.28.91,16.23,2.72v10.03c-4.79-1.98-9.92-2.98-15.38-2.98-6.14,0-10.59,1.55-13.32,4.63-2.73,3.09-4.1,7.87-4.1,14.33,0,6.07,1.45,10.59,4.35,13.56,2.9,2.98,7.32,4.47,13.23,4.47,5.52,0,10.63-.97,15.3-2.89v10.12c-5.02,1.64-10.43,2.47-16.24,2.47-9.02,0-15.97-2.45-20.88-7.36Z" style="fill:#005d4b;"/><path d="m935.85,1470.13c0-9.87,2.18-17.08,6.55-21.64,4.37-4.56,11.01-6.84,19.91-6.84s15.54,2.28,19.91,6.84c4.37,4.56,6.55,11.78,6.55,21.64,0,18.65-8.81,27.98-26.46,27.98s-26.46-9.33-26.46-27.98Zm37.71,13.73c2.42-2.98,3.63-7.55,3.63-13.73,0-6.75-1.18-11.55-3.55-14.42-2.37-2.86-6.14-4.29-11.33-4.29s-8.96,1.43-11.32,4.29c-2.37,2.87-3.55,7.67-3.55,14.42,0,6.18,1.21,10.75,3.63,13.73,2.42,2.97,6.17,4.47,11.25,4.47s8.82-1.49,11.25-4.47Z" style="fill:#005d4b;"/><path d="m996.71,1442.49h9.9l25.79,36.48v-36.48h11.41v54.76h-9.9l-25.79-36.48v36.48h-11.41v-54.76Z" style="fill:#005d4b;"/><path d="m1051.76,1470.13c0-9.87,2.18-17.08,6.55-21.64,4.37-4.56,11.01-6.84,19.91-6.84s15.54,2.28,19.91,6.84c4.37,4.56,6.55,11.78,6.55,21.64,0,18.65-8.81,27.98-26.46,27.98s-26.46-9.33-26.46-27.98Zm37.71,13.73c2.42-2.98,3.63-7.55,3.63-13.73,0-6.75-1.18-11.55-3.55-14.42-2.37-2.86-6.14-4.29-11.33-4.29s-8.96,1.43-11.32,4.29c-2.37,2.87-3.55,7.67-3.55,14.42,0,6.18,1.21,10.75,3.63,13.73,2.42,2.97,6.17,4.47,11.25,4.47s8.82-1.49,11.25-4.47Z" style="fill:#005d4b;"/><path d="m1109.67,1442.49h11.5l15.98,32.9,15.98-32.9h11.41v54.76h-11.41v-35.63l-12.68,26.19h-6.6l-12.77-26.19v35.63h-11.41v-54.76Z" style="fill:#005d4b;"/><path d="m1189.07,1477.02l-19.53-34.52h11.92l13.36,24.75,13.35-24.75h11.84l-19.53,34.52v20.24h-11.41v-20.24Z" style="fill:#005d4b;"/><path d="m1277.5,1442.49h12.52l20.71,54.76h-11.84l-5.16-13.18h-20.04l-5.07,13.18h-11.92l20.8-54.76Zm14.54,32.74l-8.37-22.02-8.29,22.02h16.66Z" style="fill:#005d4b;"/><path d="m1318.67,1442.49h9.9l25.79,36.48v-36.48h11.41v54.76h-9.9l-25.79-36.48v36.48h-11.41v-54.76Z" style="fill:#005d4b;"/><path d="m1375.4,1442.49h22.84c8.34,0,14.53,2.17,18.59,6.5,4.07,4.34,6.1,11.38,6.1,21.13s-2.03,16.14-6.1,20.54c-4.06,4.39-10.25,6.59-18.59,6.59h-22.84v-54.76Zm21.22,45.92c3.45,0,6.2-.51,8.29-1.53,2.09-1.02,3.67-2.86,4.78-5.53,1.1-2.66,1.64-6.41,1.64-11.22s-.49-8.62-1.48-11.23c-.98-2.6-2.52-4.41-4.61-5.4-2.09-.99-4.96-1.49-8.63-1.49h-9.81v36.4h9.81Z" style="fill:#005d4b;"/><path d="m1460.63,1495.13v-10.12c2.53,1.02,5.24,1.84,8.11,2.47,2.88.63,5.66.94,8.37.94,4.22,0,7.2-.4,8.92-1.19,1.71-.79,2.58-2.44,2.58-4.93,0-1.64-.39-2.94-1.19-3.91-.79-.97-2.08-1.8-3.89-2.51-1.8-.7-4.62-1.6-8.45-2.68-5.69-1.59-9.7-3.57-12-5.95-2.31-2.38-3.47-5.67-3.47-9.87,0-5.05,1.83-8.93,5.49-11.65,3.66-2.72,8.99-4.08,15.97-4.08,3.16,0,6.16.21,9.01.64,2.85.42,5.17.97,6.97,1.65v10.12c-4.62-1.76-9.44-2.64-14.46-2.64-3.83,0-6.7.43-8.58,1.28-1.89.85-2.84,2.41-2.84,4.68,0,1.42.35,2.55,1.05,3.4.71.85,1.89,1.6,3.55,2.26,1.66.65,4.24,1.43,7.73,2.34,6.31,1.7,10.68,3.89,13.11,6.59,2.42,2.69,3.63,6.13,3.63,10.33,0,4.93-1.85,8.8-5.57,11.61-3.72,2.81-9.22,4.21-16.48,4.21s-13.14-.99-17.59-2.98Z" style="fill:#005d4b;"/><path d="m1506.54,1470.13c0-9.87,2.18-17.08,6.55-21.64,4.37-4.56,11.01-6.84,19.91-6.84s15.54,2.28,19.91,6.84c4.37,4.56,6.55,11.78,6.55,21.64,0,18.65-8.81,27.98-26.46,27.98s-26.46-9.33-26.46-27.98Zm37.71,13.73c2.42-2.98,3.63-7.55,3.63-13.73,0-6.75-1.18-11.55-3.55-14.42-2.37-2.86-6.14-4.29-11.33-4.29s-8.96,1.43-11.32,4.29c-2.37,2.87-3.55,7.67-3.55,14.42,0,6.18,1.21,10.75,3.63,13.73,2.42,2.97,6.17,4.47,11.25,4.47s8.82-1.49,11.25-4.47Z" style="fill:#005d4b;"/><path d="m1570.97,1490.75c-4.9-4.9-7.36-11.69-7.36-20.36,0-9.19,2.37-16.27,7.14-21.26,4.77-4.99,11.77-7.48,21.01-7.48,5.86,0,11.28.91,16.23,2.72v10.03c-4.79-1.98-9.92-2.98-15.38-2.98-6.14,0-10.59,1.55-13.32,4.63-2.73,3.09-4.1,7.87-4.1,14.33,0,6.07,1.45,10.59,4.35,13.56,2.9,2.98,7.32,4.47,13.23,4.47,5.52,0,10.63-.97,15.3-2.89v10.12c-5.02,1.64-10.43,2.47-16.24,2.47-9.02,0-15.97-2.45-20.88-7.36Z" style="fill:#005d4b;"/><path d="m1616.02,1442.49h11.41v54.76h-11.41v-54.76Z" style="fill:#005d4b;"/><path d="m1637.07,1442.49h39.06v8.93h-27.65v14.03h24.52v8.84h-24.52v14.12h27.65v8.84h-39.06v-54.76Z" style="fill:#005d4b;"/><path d="m1697.45,1451.33h-16.74v-8.84h44.81v8.84h-16.65v45.92h-11.41v-45.92Z" style="fill:#005d4b;"/><path d="m1748.76,1477.02l-19.53-34.52h11.92l13.36,24.75,13.35-24.75h11.84l-19.53,34.52v20.24h-11.41v-20.24Z" style="fill:#005d4b;"/></svg>